<?xml version="1.0" encoding="utf-8"?>
<!-- Generator: Adobe Illustrator 17.0.0, SVG Export Plug-In . SVG Version: 6.00 Build 0)  -->
<!DOCTYPE svg PUBLIC "-//W3C//DTD SVG 1.1//EN" "http://www.w3.org/Graphics/SVG/1.1/DTD/svg11.dtd">
<svg version="1.1" id="Layer_1" xmlns="http://www.w3.org/2000/svg" xmlns:xlink="http://www.w3.org/1999/xlink" x="0px" y="0px"
	 width="169.75px" height="40px" viewBox="0 0 169.75 40" enable-background="new 0 0 169.75 40" xml:space="preserve">
<g>
	<g>
		<defs>
			<path id="SVGID_1_" d="M139.612,33.113c-0.479,0-0.882,0.149-1.208,0.444c-0.304,0.281-0.491,0.647-0.56,1.099h3.536
				c-0.069-0.452-0.256-0.818-0.561-1.099C140.492,33.263,140.09,33.113,139.612,33.113 M139.674,37.02
				c0.701,0,1.202-0.289,1.509-0.863h0.853c-0.18,0.463-0.467,0.841-0.859,1.129c-0.391,0.288-0.898,0.432-1.513,0.432
				c-0.784,0-1.423-0.259-1.915-0.771c-0.478-0.5-0.716-1.128-0.716-1.882c0-0.759,0.227-1.386,0.685-1.881
				c0.486-0.512,1.117-0.77,1.895-0.77c0.776,0,1.408,0.258,1.893,0.77c0.457,0.496,0.686,1.122,0.686,1.881v0.308h-4.357
				c0.055,0.473,0.245,0.863,0.57,1.173C138.738,36.861,139.16,37.02,139.674,37.02"/>
		</defs>
		<clipPath id="SVGID_2_">
			<use xlink:href="#SVGID_1_"  overflow="visible"/>
		</clipPath>
		<g clip-path="url(#SVGID_2_)">
			<defs>
				<rect id="SVGID_3_" x="-1215.034" y="-46.443" width="1968.244" height="1399.64"/>
			</defs>
			<clipPath id="SVGID_4_">
				<use xlink:href="#SVGID_3_"  overflow="visible"/>
			</clipPath>
			<rect x="130.199" y="25.581" clip-path="url(#SVGID_4_)" fill="#777776" width="18.826" height="18.972"/>
		</g>
	</g>
	<g>
		<defs>
			<path id="SVGID_5_" d="M144.08,32.498v0.799c0.187-0.245,0.416-0.454,0.687-0.624c0.27-0.171,0.577-0.258,0.928-0.258
				c0.346,0,0.643,0.048,0.892,0.144c0.251,0.096,0.468,0.24,0.656,0.432c0.43,0.417,0.645,0.969,0.645,1.654v2.991h-0.78v-2.969
				c0-0.475-0.134-0.85-0.408-1.131c-0.27-0.283-0.618-0.423-1.048-0.423c-0.437,0-0.808,0.144-1.113,0.432
				c-0.305,0.296-0.458,0.672-0.458,1.131v2.959h-0.78v-5.138H144.08"/>
		</defs>
		<clipPath id="SVGID_6_">
			<use xlink:href="#SVGID_5_"  overflow="visible"/>
		</clipPath>
		<g clip-path="url(#SVGID_6_)">
			<defs>
				<rect id="SVGID_7_" x="-1215.034" y="-46.443" width="1968.244" height="1399.64"/>
			</defs>
			<clipPath id="SVGID_8_">
				<use xlink:href="#SVGID_7_"  overflow="visible"/>
			</clipPath>
			<rect x="136.465" y="25.581" clip-path="url(#SVGID_8_)" fill="#777776" width="18.257" height="18.889"/>
		</g>
	</g>
	<g>
		<defs>
			<path id="SVGID_9_" d="M151.567,33.113c-0.479,0-0.881,0.149-1.206,0.444c-0.306,0.281-0.492,0.647-0.562,1.099h3.536
				c-0.068-0.452-0.256-0.818-0.56-1.099C152.448,33.263,152.045,33.113,151.567,33.113 M151.629,37.02
				c0.701,0,1.204-0.289,1.51-0.863h0.852c-0.18,0.463-0.468,0.841-0.859,1.129c-0.393,0.288-0.896,0.432-1.513,0.432
				c-0.783,0-1.422-0.259-1.915-0.771c-0.479-0.5-0.717-1.128-0.717-1.882c0-0.759,0.227-1.386,0.687-1.881
				c0.486-0.512,1.117-0.77,1.893-0.77c0.776,0,1.406,0.258,1.894,0.77c0.456,0.496,0.688,1.122,0.688,1.881v0.308h-4.36
				c0.056,0.473,0.246,0.863,0.572,1.173C150.693,36.861,151.116,37.02,151.629,37.02"/>
		</defs>
		<clipPath id="SVGID_10_">
			<use xlink:href="#SVGID_9_"  overflow="visible"/>
		</clipPath>
		<g clip-path="url(#SVGID_10_)">
			<defs>
				<rect id="SVGID_11_" x="-1215.034" y="-46.443" width="1968.244" height="1399.64"/>
			</defs>
			<clipPath id="SVGID_12_">
				<use xlink:href="#SVGID_11_"  overflow="visible"/>
			</clipPath>
			<rect x="142.154" y="25.581" clip-path="url(#SVGID_12_)" fill="#777776" width="18.83" height="18.972"/>
		</g>
	</g>
	<g>
		<defs>
			<rect id="SVGID_13_" x="155.256" y="32.415" width="8.392" height="7.281"/>
		</defs>
		<clipPath id="SVGID_14_">
			<use xlink:href="#SVGID_13_"  overflow="visible"/>
		</clipPath>
		<g clip-path="url(#SVGID_14_)">
			<defs>
				<rect id="SVGID_15_" x="-1215.034" y="-46.443" width="1968.244" height="1399.64"/>
			</defs>
			<clipPath id="SVGID_16_">
				<use xlink:href="#SVGID_15_"  overflow="visible"/>
			</clipPath>
			<g clip-path="url(#SVGID_16_)" enable-background="new    ">
				<g>
					<defs>
						<rect id="SVGID_17_" x="154.536" y="31.466" width="9.568" height="9.568"/>
					</defs>
					<clipPath id="SVGID_18_">
						<use xlink:href="#SVGID_17_"  overflow="visible"/>
					</clipPath>
					<g clip-path="url(#SVGID_18_)">
						<defs>
							<path id="SVGID_19_" d="M158.001,32.415v0.77h-0.094c-0.562,0-1.019,0.223-1.371,0.669c-0.334,0.426-0.501,0.932-0.501,1.521
								v2.261h-0.779v-5.138h0.779v1.265c0.167-0.535,0.526-0.931,1.082-1.184c0.228-0.109,0.506-0.164,0.832-0.164H158.001"/>
						</defs>
						<clipPath id="SVGID_20_">
							<use xlink:href="#SVGID_19_"  overflow="visible"/>
						</clipPath>
						<g clip-path="url(#SVGID_20_)">
							<defs>
								<rect id="SVGID_21_" x="154.536" y="31.466" width="9.568" height="9.568"/>
							</defs>
							<clipPath id="SVGID_22_">
								<use xlink:href="#SVGID_21_"  overflow="visible"/>
							</clipPath>
							<rect x="148.422" y="25.581" clip-path="url(#SVGID_22_)" fill="#777776" width="16.413" height="18.889"/>
						</g>
					</g>
					<g clip-path="url(#SVGID_18_)">
						<defs>
							<path id="SVGID_23_" d="M161.111,36.937c0.283,0,0.537-0.049,0.758-0.148c0.223-0.099,0.415-0.236,0.573-0.409
								c0.312-0.356,0.471-0.807,0.471-1.353c0-0.549-0.159-1.002-0.471-1.358c-0.339-0.37-0.785-0.554-1.331-0.554
								c-0.562,0-1.013,0.184-1.354,0.554c-0.325,0.362-0.488,0.815-0.488,1.358c0,0.541,0.164,0.992,0.488,1.353
								C160.098,36.753,160.549,36.937,161.111,36.937 M162.87,33.32v-0.822h0.778v4.984c0,0.739-0.212,1.302-0.64,1.692
								c-0.426,0.384-1,0.578-1.72,0.578c-0.722,0-1.285-0.137-1.692-0.412c-0.405-0.273-0.681-0.635-0.825-1.088h0.863
								c0.221,0.534,0.73,0.802,1.519,0.802c0.603,0,1.042-0.137,1.312-0.412c0.27-0.273,0.406-0.678,0.406-1.212v-0.709
								c-0.424,0.609-1.046,0.916-1.863,0.916c-0.749,0-1.36-0.255-1.83-0.761c-0.46-0.496-0.687-1.11-0.687-1.849
								c0-0.741,0.227-1.358,0.687-1.852c0.47-0.508,1.1-0.76,1.886-0.76C161.851,32.415,162.453,32.716,162.87,33.32"/>
						</defs>
						<clipPath id="SVGID_24_">
							<use xlink:href="#SVGID_23_"  overflow="visible"/>
						</clipPath>
						<g clip-path="url(#SVGID_24_)">
							<defs>
								<rect id="SVGID_25_" x="154.536" y="31.466" width="9.568" height="9.568"/>
							</defs>
							<clipPath id="SVGID_26_">
								<use xlink:href="#SVGID_25_"  overflow="visible"/>
							</clipPath>
							<rect x="151.656" y="25.581" clip-path="url(#SVGID_26_)" fill="#777776" width="18.826" height="21.006"/>
						</g>
					</g>
				</g>
			</g>
		</g>
	</g>
	<g>
		<defs>
			<polyline id="SVGID_27_" points="166.529,39.671 165.687,39.671 166.635,37.564 164.512,32.498 165.377,32.498 167.051,36.712 
				168.756,32.498 169.609,32.498 166.529,39.671 			"/>
		</defs>
		<clipPath id="SVGID_28_">
			<use xlink:href="#SVGID_27_"  overflow="visible"/>
		</clipPath>
		<g clip-path="url(#SVGID_28_)">
			<defs>
				<rect id="SVGID_29_" x="-1215.034" y="-46.443" width="1968.244" height="1399.64"/>
			</defs>
			<clipPath id="SVGID_30_">
				<use xlink:href="#SVGID_29_"  overflow="visible"/>
			</clipPath>
			<rect x="157.678" y="25.664" clip-path="url(#SVGID_30_)" fill="#777776" width="18.766" height="20.841"/>
		</g>
	</g>
	<g>
		<defs>
			<path id="SVGID_31_" d="M44.814,28.163c-1.51,0-3.079-0.275-4.797-0.839l-0.108-0.037l0.692-2.607l0.118,0.034
				c1.293,0.349,2.63,0.71,3.975,0.71c1.476,0,4.911-0.43,4.911-4.406v-6.665c0-3.323-2.243-5.061-4.459-5.061
				c-3.382,0-4.581,2.773-4.581,5.15c0,2.645,1.947,4.493,4.731,4.493c1.18,0,2.289-0.549,3.315-1.143l0.18-0.103v2.985
				l-0.062,0.033c-1.056,0.569-2.48,0.969-3.461,0.969c-4.329,0-7.593-3.174-7.593-7.38c0-4.485,3.193-7.74,7.593-7.74
				c4.526,0,7.23,3.663,7.23,7.205v6.367C52.496,25.083,49.553,28.163,44.814,28.163"/>
		</defs>
		<clipPath id="SVGID_32_">
			<use xlink:href="#SVGID_31_"  overflow="visible"/>
		</clipPath>
		<g clip-path="url(#SVGID_32_)">
			<defs>
				<rect id="SVGID_33_" x="-1215.034" y="-46.443" width="1968.244" height="1399.64"/>
			</defs>
			<clipPath id="SVGID_34_">
				<use xlink:href="#SVGID_33_"  overflow="visible"/>
			</clipPath>
			<rect x="30.84" y="-0.279" clip-path="url(#SVGID_34_)" fill="#777776" width="28.491" height="35.276"/>
		</g>
	</g>
	<g>
		<defs>
			<path id="SVGID_35_" d="M57.681,21.376h-2.892V6.853h2.772V8.31c0.875-1.212,2.078-1.755,3.857-1.755h0.721v2.738h-0.51
				c-2.657,0-3.948,1.733-3.948,5.297V21.376"/>
		</defs>
		<clipPath id="SVGID_36_">
			<use xlink:href="#SVGID_35_"  overflow="visible"/>
		</clipPath>
		<g clip-path="url(#SVGID_36_)">
			<defs>
				<rect id="SVGID_37_" x="-1215.034" y="-46.443" width="1968.244" height="1399.64"/>
			</defs>
			<clipPath id="SVGID_38_">
				<use xlink:href="#SVGID_37_"  overflow="visible"/>
			</clipPath>
			<rect x="47.955" y="-0.279" clip-path="url(#SVGID_38_)" fill="#777776" width="21.018" height="28.489"/>
		</g>
	</g>
	<g>
		<defs>
			<path id="SVGID_39_" d="M70.147,21.701c-1.362,0-2.752-0.38-4.015-1.099c-1.75-0.996-3.015-2.577-3.563-4.45
				c-0.569-1.944-0.292-4.023,0.777-5.857C64.74,7.9,67.192,6.471,69.9,6.471c1.348,0,2.686,0.356,3.87,1.028
				c2.789,1.587,4.079,4.103,3.832,7.48l-0.008,0.111L66.19,14.918l0.124-2.578l0.117,0.004l8.011,0.111
				c-0.324-1.122-0.758-1.843-2.056-2.583c-0.748-0.425-1.533-0.639-2.333-0.639c-1.661,0-3.152,0.928-4.097,2.548
				c-0.693,1.188-0.918,2.488-0.628,3.659c0.283,1.16,1.062,2.15,2.186,2.791c0.867,0.494,1.665,0.734,2.442,0.734
				c1.303,0,2.533-0.695,3.868-2.188l0.074-0.083l2.339,1.74l-0.066,0.093C74.771,20.544,72.575,21.701,70.147,21.701"/>
		</defs>
		<clipPath id="SVGID_40_">
			<use xlink:href="#SVGID_39_"  overflow="visible"/>
		</clipPath>
		<g clip-path="url(#SVGID_40_)">
			<defs>
				<rect id="SVGID_41_" x="-1215.034" y="-46.443" width="1968.244" height="1399.64"/>
			</defs>
			<clipPath id="SVGID_42_">
				<use xlink:href="#SVGID_41_"  overflow="visible"/>
			</clipPath>
			<rect x="55.446" y="-0.363" clip-path="url(#SVGID_42_)" fill="#777776" width="29.019" height="28.899"/>
		</g>
	</g>
	<g>
		<defs>
			<path id="SVGID_43_" d="M86.86,21.701c-1.363,0-2.754-0.38-4.016-1.099c-1.75-0.996-3.015-2.577-3.565-4.45
				c-0.567-1.944-0.29-4.023,0.778-5.857c1.396-2.395,3.846-3.824,6.557-3.824c1.347,0,2.684,0.356,3.869,1.028
				c2.787,1.587,4.077,4.103,3.831,7.48l-0.01,0.111l-11.403-0.172l0.124-2.578l0.118,0.004l8.012,0.111
				c-0.325-1.122-0.761-1.843-2.057-2.583c-0.749-0.425-1.532-0.639-2.333-0.639c-1.662,0-3.155,0.928-4.098,2.548
				c-0.694,1.188-0.919,2.488-0.628,3.659c0.284,1.16,1.064,2.15,2.189,2.791c0.866,0.494,1.664,0.734,2.439,0.734
				c1.304,0,2.534-0.695,3.868-2.188l0.074-0.083l2.342,1.74l-0.066,0.093C91.486,20.544,89.289,21.701,86.86,21.701"/>
		</defs>
		<clipPath id="SVGID_44_">
			<use xlink:href="#SVGID_43_"  overflow="visible"/>
		</clipPath>
		<g clip-path="url(#SVGID_44_)">
			<defs>
				<rect id="SVGID_45_" x="-1215.034" y="-46.443" width="1968.244" height="1399.64"/>
			</defs>
			<clipPath id="SVGID_46_">
				<use xlink:href="#SVGID_45_"  overflow="visible"/>
			</clipPath>
			<rect x="72.158" y="-0.363" clip-path="url(#SVGID_46_)" fill="#777776" width="29.021" height="28.899"/>
		</g>
	</g>
	<g>
		<defs>
			<path id="SVGID_47_" d="M108.76,21.376h-2.892v-8.451c0-2.038-1.495-3.632-3.404-3.632s-3.405,1.594-3.405,3.632v8.451h-2.892
				v-8.451c0-3.75,2.588-6.37,6.296-6.37c3.706,0,6.295,2.62,6.295,6.37V21.376"/>
		</defs>
		<clipPath id="SVGID_48_">
			<use xlink:href="#SVGID_47_"  overflow="visible"/>
		</clipPath>
		<g clip-path="url(#SVGID_48_)">
			<defs>
				<rect id="SVGID_49_" x="-1215.034" y="-46.443" width="1968.244" height="1399.64"/>
			</defs>
			<clipPath id="SVGID_50_">
				<use xlink:href="#SVGID_49_"  overflow="visible"/>
			</clipPath>
			<rect x="89.335" y="-0.279" clip-path="url(#SVGID_50_)" fill="#777776" width="26.26" height="28.489"/>
		</g>
	</g>
	<g>
		<defs>
			<path id="SVGID_51_" d="M125.637,21.675c-1.725,0-3.289-0.723-4.219-1.942c-0.931,1.219-2.494,1.942-4.218,1.942
				c-2.973,0-5.303-2.197-5.303-5V6.853h2.891v9.227c0,1.735,0.971,2.855,2.471,2.855c1.8,0,2.712-1.101,2.712-3.273V6.853h2.894
				v8.809c0,2.204,0.888,3.273,2.712,3.273c1.498,0,2.469-1.121,2.469-2.855V6.853h2.892v9.822
				C130.94,19.478,128.61,21.675,125.637,21.675"/>
		</defs>
		<clipPath id="SVGID_52_">
			<use xlink:href="#SVGID_51_"  overflow="visible"/>
		</clipPath>
		<g clip-path="url(#SVGID_52_)">
			<defs>
				<rect id="SVGID_53_" x="-1215.034" y="-46.443" width="1968.244" height="1399.64"/>
			</defs>
			<clipPath id="SVGID_54_">
				<use xlink:href="#SVGID_53_"  overflow="visible"/>
			</clipPath>
			<rect x="105.064" y="0.019" clip-path="url(#SVGID_54_)" fill="#4D4E4C" width="32.71" height="28.491"/>
		</g>
	</g>
	<g>
		<defs>
			<path id="SVGID_55_" d="M135.526,5.484c-1.128,0-1.719-0.854-1.719-1.698c0-0.841,0.591-1.694,1.719-1.694
				c1.127,0,1.716,0.853,1.716,1.694C137.242,4.63,136.653,5.484,135.526,5.484z M134.079,21.376h2.893V6.853h-2.893V21.376z"/>
		</defs>
		<clipPath id="SVGID_56_">
			<use xlink:href="#SVGID_55_"  overflow="visible"/>
		</clipPath>
		<g clip-path="url(#SVGID_56_)">
			<defs>
				<rect id="SVGID_57_" x="-1215.034" y="-46.443" width="1968.244" height="1399.64"/>
			</defs>
			<clipPath id="SVGID_58_">
				<use xlink:href="#SVGID_57_"  overflow="visible"/>
			</clipPath>
			<rect x="126.973" y="-4.742" clip-path="url(#SVGID_58_)" fill="#4D4E4C" width="17.103" height="32.951"/>
		</g>
	</g>
	<g>
		<defs>
			<path id="SVGID_59_" d="M152.705,21.376h-2.893v-8.451c0-2.038-1.495-3.632-3.404-3.632c-1.909,0-3.405,1.594-3.405,3.632v8.451
				h-2.893v-8.451c0-3.75,2.59-6.37,6.297-6.37c3.708,0,6.297,2.62,6.297,6.37V21.376"/>
		</defs>
		<clipPath id="SVGID_60_">
			<use xlink:href="#SVGID_59_"  overflow="visible"/>
		</clipPath>
		<g clip-path="url(#SVGID_60_)">
			<defs>
				<rect id="SVGID_61_" x="-1215.034" y="-46.443" width="1968.244" height="1399.64"/>
			</defs>
			<clipPath id="SVGID_62_">
				<use xlink:href="#SVGID_61_"  overflow="visible"/>
			</clipPath>
			<rect x="133.276" y="-0.279" clip-path="url(#SVGID_62_)" fill="#4D4E4C" width="26.263" height="28.489"/>
		</g>
	</g>
	<g>
		<defs>
			<polygon id="SVGID_63_" points="0.141,27.474 0.141,0.304 169.609,0.304 169.609,13.889 169.609,27.474 			"/>
		</defs>
		<clipPath id="SVGID_64_">
			<use xlink:href="#SVGID_63_"  overflow="visible"/>
		</clipPath>
		<g clip-path="url(#SVGID_64_)">
			<defs>
				<rect id="SVGID_65_" x="-1215.034" y="-46.443" width="1968.244" height="1399.64"/>
			</defs>
			<clipPath id="SVGID_66_">
				<use xlink:href="#SVGID_65_"  overflow="visible"/>
			</clipPath>
			<g clip-path="url(#SVGID_66_)" enable-background="new    ">
				<g>
					<defs>
						<rect id="SVGID_67_" x="0.083" y="0.029" width="170.854" height="28.704"/>
					</defs>
					<clipPath id="SVGID_68_">
						<use xlink:href="#SVGID_67_"  overflow="visible"/>
					</clipPath>
					<g clip-path="url(#SVGID_68_)">
						<defs>
							<path id="SVGID_69_" d="M162.198,21.675c-4.47,0-7.595-3.255-7.595-7.915c0-3.972,3.176-7.205,7.082-7.205
								c1.551,0,2.95,0.346,4.156,1.027l0.061,0.035v3.032l-0.189-0.128c-0.904-0.612-2.358-1.229-3.577-1.229
								c-2.777,0-4.641,1.925-4.641,4.791c0,2.858,1.933,4.851,4.701,4.851c2.745,0,4.52-2.243,4.52-5.714V0.304h2.891v13.394
								C169.609,18.394,166.561,21.675,162.198,21.675"/>
						</defs>
						<clipPath id="SVGID_70_">
							<use xlink:href="#SVGID_69_"  overflow="visible"/>
						</clipPath>
						<g clip-path="url(#SVGID_70_)">
							<defs>
								<rect id="SVGID_71_" x="0.083" y="0.029" width="170.854" height="28.704"/>
							</defs>
							<clipPath id="SVGID_72_">
								<use xlink:href="#SVGID_71_"  overflow="visible"/>
							</clipPath>
							<rect x="147.769" y="-6.53" clip-path="url(#SVGID_72_)" fill="#4D4E4C" width="28.675" height="35.04"/>
						</g>
					</g>
					<g clip-path="url(#SVGID_68_)">
						<defs>
							<path id="SVGID_73_" d="M26.463,21.765c0,3.153-2.587,5.709-5.778,5.709H5.862c-3.191,0-5.779-2.556-5.779-5.709V7.124
								c0-3.153,2.588-5.708,5.779-5.708h14.822c3.191,0,5.778,2.555,5.778,5.708V21.765"/>
						</defs>
						<clipPath id="SVGID_74_">
							<use xlink:href="#SVGID_73_"  overflow="visible"/>
						</clipPath>
						<g clip-path="url(#SVGID_74_)">
							<defs>
								<rect id="SVGID_75_" x="0.083" y="0.029" width="170.854" height="28.704"/>
							</defs>
							<clipPath id="SVGID_76_">
								<use xlink:href="#SVGID_75_"  overflow="visible"/>
							</clipPath>
							<rect x="-6.751" y="-5.418" clip-path="url(#SVGID_76_)" fill="#84AF5F" width="40.048" height="39.726"/>
						</g>
					</g>
				</g>
			</g>
		</g>
	</g>
	<g>
		<defs>
			<polyline id="SVGID_77_" points="11.767,15.951 11.767,21.972 16.363,18.962 11.767,15.951 			"/>
		</defs>
		<clipPath id="SVGID_78_">
			<use xlink:href="#SVGID_77_"  overflow="visible"/>
		</clipPath>
		<g clip-path="url(#SVGID_78_)">
			<defs>
				<rect id="SVGID_79_" x="-1215.034" y="-46.443" width="1968.244" height="1399.64"/>
			</defs>
			<clipPath id="SVGID_80_">
				<use xlink:href="#SVGID_79_"  overflow="visible"/>
			</clipPath>
			<rect x="4.933" y="9.116" clip-path="url(#SVGID_80_)" fill="#FFFFFE" width="18.264" height="19.69"/>
		</g>
	</g>
	<g>
		<defs>
			<polyline id="SVGID_81_" points="16.363,12.941 16.363,18.964 20.959,15.951 16.363,12.941 			"/>
		</defs>
		<clipPath id="SVGID_82_">
			<use xlink:href="#SVGID_81_"  overflow="visible"/>
		</clipPath>
		<g clip-path="url(#SVGID_82_)">
			<defs>
				<rect id="SVGID_83_" x="-1215.034" y="-46.443" width="1968.244" height="1399.64"/>
			</defs>
			<clipPath id="SVGID_84_">
				<use xlink:href="#SVGID_83_"  overflow="visible"/>
			</clipPath>
			<rect x="9.529" y="6.107" clip-path="url(#SVGID_84_)" fill="#FFFFFE" width="18.264" height="19.691"/>
		</g>
	</g>
	<g>
		<defs>
			<polyline id="SVGID_85_" points="16.363,18.965 16.363,24.99 20.959,21.978 16.363,18.965 			"/>
		</defs>
		<clipPath id="SVGID_86_">
			<use xlink:href="#SVGID_85_"  overflow="visible"/>
		</clipPath>
		<g clip-path="url(#SVGID_86_)">
			<defs>
				<rect id="SVGID_87_" x="-1215.034" y="-46.443" width="1968.244" height="1399.64"/>
			</defs>
			<clipPath id="SVGID_88_">
				<use xlink:href="#SVGID_87_"  overflow="visible"/>
			</clipPath>
			<rect x="9.529" y="12.131" clip-path="url(#SVGID_88_)" fill="#FFFFFE" width="18.264" height="19.693"/>
		</g>
	</g>
	<g>
		<defs>
			<polygon id="SVGID_89_" points="7.171,12.935 7.171,6.913 11.767,9.923 			"/>
		</defs>
		<clipPath id="SVGID_90_">
			<use xlink:href="#SVGID_89_"  overflow="visible"/>
		</clipPath>
		<g clip-path="url(#SVGID_90_)">
			<defs>
				<rect id="SVGID_91_" x="-1215.034" y="-46.443" width="1968.244" height="1399.64"/>
			</defs>
			<clipPath id="SVGID_92_">
				<use xlink:href="#SVGID_91_"  overflow="visible"/>
			</clipPath>
			<g clip-path="url(#SVGID_92_)" enable-background="new    ">
				<g>
					<defs>
						<rect id="SVGID_93_" x="6.917" y="6.863" width="5.467" height="6.834"/>
					</defs>
					<clipPath id="SVGID_94_">
						<use xlink:href="#SVGID_93_"  overflow="visible"/>
					</clipPath>
					<g clip-path="url(#SVGID_94_)">
						<defs>
							<rect id="SVGID_95_" x="7.171" y="6.913" width="4.596" height="6.022"/>
						</defs>
						<clipPath id="SVGID_96_">
							<use xlink:href="#SVGID_95_"  overflow="visible"/>
						</clipPath>
						<g clip-path="url(#SVGID_96_)">
							<defs>
								<rect id="SVGID_97_" x="6.917" y="6.863" width="5.467" height="6.834"/>
							</defs>
							<clipPath id="SVGID_98_">
								<use xlink:href="#SVGID_97_"  overflow="visible"/>
							</clipPath>
							<rect x="0.337" y="0.079" clip-path="url(#SVGID_98_)" fill="#B1CA94" width="18.264" height="19.69"/>
						</g>
					</g>
				</g>
			</g>
		</g>
	</g>
	<g>
		<defs>
			<polyline id="SVGID_99_" points="11.767,9.925 11.767,3.901 16.363,6.913 11.767,9.925 			"/>
		</defs>
		<clipPath id="SVGID_100_">
			<use xlink:href="#SVGID_99_"  overflow="visible"/>
		</clipPath>
		<g clip-path="url(#SVGID_100_)">
			<defs>
				<rect id="SVGID_101_" x="-1215.034" y="-46.443" width="1968.244" height="1399.64"/>
			</defs>
			<clipPath id="SVGID_102_">
				<use xlink:href="#SVGID_101_"  overflow="visible"/>
			</clipPath>
			<rect x="4.933" y="-2.933" clip-path="url(#SVGID_102_)" fill="#B1CA94" width="18.264" height="19.692"/>
		</g>
	</g>
	<g>
		<defs>
			<polyline id="SVGID_103_" points="11.767,15.951 11.767,9.929 16.363,12.939 11.767,15.951 			"/>
		</defs>
		<clipPath id="SVGID_104_">
			<use xlink:href="#SVGID_103_"  overflow="visible"/>
		</clipPath>
		<g clip-path="url(#SVGID_104_)">
			<defs>
				<rect id="SVGID_105_" x="-1215.034" y="-46.443" width="1968.244" height="1399.64"/>
			</defs>
			<clipPath id="SVGID_106_">
				<use xlink:href="#SVGID_105_"  overflow="visible"/>
			</clipPath>
			<rect x="4.933" y="3.094" clip-path="url(#SVGID_106_)" fill="#B1CA94" width="18.264" height="19.69"/>
		</g>
	</g>
	<g>
		<defs>
			<polyline id="SVGID_107_" points="2.575,21.972 2.575,15.951 7.171,18.962 2.575,21.972 			"/>
		</defs>
		<clipPath id="SVGID_108_">
			<use xlink:href="#SVGID_107_"  overflow="visible"/>
		</clipPath>
		<g clip-path="url(#SVGID_108_)">
			<defs>
				<rect id="SVGID_109_" x="-1215.034" y="-46.443" width="1968.244" height="1399.64"/>
			</defs>
			<clipPath id="SVGID_110_">
				<use xlink:href="#SVGID_109_"  overflow="visible"/>
			</clipPath>
			<rect x="-4.259" y="9.116" clip-path="url(#SVGID_110_)" fill="#CBDAB1" width="18.264" height="19.69"/>
		</g>
	</g>
	<g>
		<defs>
			<polyline id="SVGID_111_" points="7.171,18.964 7.171,12.941 11.767,15.951 7.171,18.964 			"/>
		</defs>
		<clipPath id="SVGID_112_">
			<use xlink:href="#SVGID_111_"  overflow="visible"/>
		</clipPath>
		<g clip-path="url(#SVGID_112_)">
			<defs>
				<rect id="SVGID_113_" x="-1215.034" y="-46.443" width="1968.244" height="1399.64"/>
			</defs>
			<clipPath id="SVGID_114_">
				<use xlink:href="#SVGID_113_"  overflow="visible"/>
			</clipPath>
			<rect x="0.337" y="6.107" clip-path="url(#SVGID_114_)" fill="#CBDAB1" width="18.264" height="19.691"/>
		</g>
	</g>
	<g>
		<defs>
			<polyline id="SVGID_115_" points="7.171,24.99 7.171,18.965 11.767,21.978 7.171,24.99 			"/>
		</defs>
		<clipPath id="SVGID_116_">
			<use xlink:href="#SVGID_115_"  overflow="visible"/>
		</clipPath>
		<g clip-path="url(#SVGID_116_)">
			<defs>
				<rect id="SVGID_117_" x="-1215.034" y="-46.443" width="1968.244" height="1399.64"/>
			</defs>
			<clipPath id="SVGID_118_">
				<use xlink:href="#SVGID_117_"  overflow="visible"/>
			</clipPath>
			<rect x="0.337" y="12.131" clip-path="url(#SVGID_118_)" fill="#CBDAB1" width="18.264" height="19.693"/>
		</g>
	</g>
</g>
</svg>
