<?xml version="1.0" encoding="utf-8"?>
<!-- Generator: Adobe Illustrator 17.0.0, SVG Export Plug-In . SVG Version: 6.00 Build 0)  -->
<!DOCTYPE svg PUBLIC "-//W3C//DTD SVG 1.1//EN" "http://www.w3.org/Graphics/SVG/1.1/DTD/svg11.dtd">
<svg version="1.1" id="Layer_1" xmlns="http://www.w3.org/2000/svg" xmlns:xlink="http://www.w3.org/1999/xlink" x="0px" y="0px"
	 width="177.5px" height="40px" viewBox="0 0 177.5 40" enable-background="new 0 0 177.5 40" xml:space="preserve">
<g>
	<g>
		<defs>
			<path id="SVGID_1_" d="M46.84,29.682c-1.578,0-3.218-0.291-5.013-0.888l-0.113-0.039l0.723-2.758l0.123,0.036
				c1.351,0.369,2.749,0.751,4.154,0.751c1.543,0,5.132-0.455,5.132-4.661v-7.051c0-3.515-2.344-5.354-4.66-5.354
				c-3.534,0-4.788,2.934-4.788,5.448c0,2.799,2.034,4.753,4.944,4.753c1.233,0,2.392-0.58,3.464-1.21l0.188-0.109v3.158
				l-0.065,0.035c-1.104,0.602-2.592,1.025-3.617,1.025c-4.524,0-7.935-3.358-7.935-7.808c0-4.745,3.337-8.189,7.935-8.189
				c4.73,0,7.555,3.875,7.555,7.622v6.736C54.868,26.424,51.792,29.682,46.84,29.682"/>
		</defs>
		<clipPath id="SVGID_2_">
			<use xlink:href="#SVGID_1_"  overflow="visible"/>
		</clipPath>
		<g clip-path="url(#SVGID_2_)">
			<defs>
				<rect id="SVGID_3_" x="-1667.544" y="-45.442" width="1921.12" height="1366.13"/>
			</defs>
			<clipPath id="SVGID_4_">
				<use xlink:href="#SVGID_3_"  overflow="visible"/>
			</clipPath>
			<rect x="32.708" y="0.152" clip-path="url(#SVGID_4_)" fill="#777776" width="28.831" height="36.2"/>
		</g>
	</g>
	<g>
		<defs>
			<path id="SVGID_5_" d="M60.286,22.501h-3.022V7.137h2.897v1.542c0.915-1.282,2.171-1.857,4.03-1.857h0.753v2.897h-0.533
				c-2.777,0-4.125,1.833-4.125,5.604V22.501"/>
		</defs>
		<clipPath id="SVGID_6_">
			<use xlink:href="#SVGID_5_"  overflow="visible"/>
		</clipPath>
		<g clip-path="url(#SVGID_6_)">
			<defs>
				<rect id="SVGID_7_" x="-1667.544" y="-45.442" width="1921.12" height="1366.13"/>
			</defs>
			<clipPath id="SVGID_8_">
				<use xlink:href="#SVGID_7_"  overflow="visible"/>
			</clipPath>
			<rect x="50.594" y="0.152" clip-path="url(#SVGID_8_)" fill="#777776" width="21.022" height="29.02"/>
		</g>
	</g>
	<g>
		<defs>
			<path id="SVGID_9_" d="M73.314,22.846c-1.424,0-2.876-0.402-4.195-1.163c-1.829-1.054-3.151-2.727-3.723-4.708
				c-0.594-2.056-0.305-4.256,0.811-6.197c1.457-2.533,4.019-4.045,6.849-4.045c1.409,0,2.807,0.376,4.044,1.088
				c2.915,1.679,4.262,4.341,4.004,7.914l-0.008,0.117l-11.918-0.182l0.13-2.728l0.122,0.004l8.372,0.117
				c-0.338-1.187-0.792-1.95-2.148-2.733c-0.781-0.449-1.602-0.676-2.438-0.676c-1.736,0-3.294,0.982-4.281,2.696
				c-0.724,1.257-0.96,2.633-0.656,3.871c0.296,1.228,1.11,2.274,2.284,2.953c0.907,0.522,1.74,0.776,2.551,0.776
				c1.362,0,2.648-0.735,4.042-2.314l0.077-0.088l2.444,1.841l-0.069,0.098C78.146,21.622,75.851,22.846,73.314,22.846"/>
		</defs>
		<clipPath id="SVGID_10_">
			<use xlink:href="#SVGID_9_"  overflow="visible"/>
		</clipPath>
		<g clip-path="url(#SVGID_10_)">
			<defs>
				<rect id="SVGID_11_" x="-1667.544" y="-45.442" width="1921.12" height="1366.13"/>
			</defs>
			<clipPath id="SVGID_12_">
				<use xlink:href="#SVGID_11_"  overflow="visible"/>
			</clipPath>
			<rect x="58.423" y="0.063" clip-path="url(#SVGID_12_)" fill="#777776" width="29.383" height="29.454"/>
		</g>
	</g>
	<g>
		<defs>
			<path id="SVGID_13_" d="M90.78,22.846c-1.425,0-2.878-0.402-4.196-1.163c-1.829-1.054-3.151-2.727-3.725-4.708
				c-0.592-2.056-0.303-4.256,0.813-6.197c1.459-2.533,4.019-4.045,6.852-4.045c1.408,0,2.805,0.376,4.043,1.088
				c2.913,1.679,4.26,4.341,4.003,7.914l-0.01,0.117l-11.917-0.182l0.13-2.728l0.123,0.004l8.373,0.117
				c-0.339-1.187-0.795-1.95-2.149-2.733c-0.782-0.449-1.601-0.676-2.438-0.676c-1.737,0-3.297,0.982-4.282,2.696
				c-0.725,1.257-0.961,2.633-0.656,3.871c0.297,1.228,1.112,2.274,2.287,2.953c0.905,0.522,1.739,0.776,2.548,0.776
				c1.363,0,2.649-0.735,4.042-2.314l0.077-0.088l2.447,1.841l-0.069,0.098C95.614,21.622,93.319,22.846,90.78,22.846"/>
		</defs>
		<clipPath id="SVGID_14_">
			<use xlink:href="#SVGID_13_"  overflow="visible"/>
		</clipPath>
		<g clip-path="url(#SVGID_14_)">
			<defs>
				<rect id="SVGID_15_" x="-1667.544" y="-45.442" width="1921.12" height="1366.13"/>
			</defs>
			<clipPath id="SVGID_16_">
				<use xlink:href="#SVGID_15_"  overflow="visible"/>
			</clipPath>
			<rect x="75.887" y="0.063" clip-path="url(#SVGID_16_)" fill="#777776" width="29.385" height="29.454"/>
		</g>
	</g>
	<g>
		<defs>
			<path id="SVGID_17_" d="M113.667,22.501h-3.022v-8.94c0-2.156-1.562-3.842-3.557-3.842s-3.558,1.686-3.558,3.842v8.94h-3.022
				v-8.94c0-3.967,2.705-6.739,6.58-6.739c3.873,0,6.579,2.772,6.579,6.739V22.501"/>
		</defs>
		<clipPath id="SVGID_18_">
			<use xlink:href="#SVGID_17_"  overflow="visible"/>
		</clipPath>
		<g clip-path="url(#SVGID_18_)">
			<defs>
				<rect id="SVGID_19_" x="-1667.544" y="-45.442" width="1921.12" height="1366.13"/>
			</defs>
			<clipPath id="SVGID_20_">
				<use xlink:href="#SVGID_19_"  overflow="visible"/>
			</clipPath>
			<rect x="93.837" y="0.152" clip-path="url(#SVGID_20_)" fill="#777776" width="26.5" height="29.02"/>
		</g>
	</g>
	<g>
		<defs>
			<path id="SVGID_21_" d="M131.304,22.819c-1.803,0-3.437-0.764-4.409-2.054c-0.973,1.29-2.607,2.054-4.408,2.054
				c-3.107,0-5.542-2.324-5.542-5.29V7.137h3.021v9.762c0,1.835,1.015,3.021,2.582,3.021c1.881,0,2.835-1.165,2.835-3.463V7.137
				h3.025v9.319c0,2.331,0.928,3.463,2.835,3.463c1.566,0,2.58-1.186,2.58-3.021V7.137h3.022v10.391
				C136.845,20.494,134.411,22.819,131.304,22.819"/>
		</defs>
		<clipPath id="SVGID_22_">
			<use xlink:href="#SVGID_21_"  overflow="visible"/>
		</clipPath>
		<g clip-path="url(#SVGID_22_)">
			<defs>
				<rect id="SVGID_23_" x="-1667.544" y="-45.442" width="1921.12" height="1366.13"/>
			</defs>
			<clipPath id="SVGID_24_">
				<use xlink:href="#SVGID_23_"  overflow="visible"/>
			</clipPath>
			<rect x="110.275" y="0.467" clip-path="url(#SVGID_24_)" fill="#4D4E4C" width="33.241" height="29.022"/>
		</g>
	</g>
	<g>
		<defs>
			<path id="SVGID_25_" d="M141.638,5.69c-1.179,0-1.796-0.904-1.796-1.796c0-0.89,0.617-1.792,1.796-1.792
				c1.178,0,1.793,0.903,1.793,1.792C143.431,4.786,142.816,5.69,141.638,5.69z M140.126,22.501h3.023V7.137h-3.023V22.501z"/>
		</defs>
		<clipPath id="SVGID_26_">
			<use xlink:href="#SVGID_25_"  overflow="visible"/>
		</clipPath>
		<g clip-path="url(#SVGID_26_)">
			<defs>
				<rect id="SVGID_27_" x="-1667.544" y="-45.442" width="1921.12" height="1366.13"/>
			</defs>
			<clipPath id="SVGID_28_">
				<use xlink:href="#SVGID_27_"  overflow="visible"/>
			</clipPath>
			<rect x="133.171" y="-4.569" clip-path="url(#SVGID_28_)" fill="#4D4E4C" width="16.93" height="33.741"/>
		</g>
	</g>
	<g>
		<defs>
			<path id="SVGID_29_" d="M159.59,22.501h-3.024v-8.94c0-2.156-1.562-3.842-3.557-3.842s-3.558,1.686-3.558,3.842v8.94h-3.023
				v-8.94c0-3.967,2.707-6.739,6.581-6.739c3.875,0,6.581,2.772,6.581,6.739V22.501"/>
		</defs>
		<clipPath id="SVGID_30_">
			<use xlink:href="#SVGID_29_"  overflow="visible"/>
		</clipPath>
		<g clip-path="url(#SVGID_30_)">
			<defs>
				<rect id="SVGID_31_" x="-1667.544" y="-45.442" width="1921.12" height="1366.13"/>
			</defs>
			<clipPath id="SVGID_32_">
				<use xlink:href="#SVGID_31_"  overflow="visible"/>
			</clipPath>
			<rect x="139.758" y="0.152" clip-path="url(#SVGID_32_)" fill="#4D4E4C" width="26.503" height="29.02"/>
		</g>
	</g>
	<g>
		<defs>
			<polygon id="SVGID_33_" points="0.154,28.953 0.154,0.209 88.705,0.209 177.257,0.209 177.257,28.953 			"/>
		</defs>
		<clipPath id="SVGID_34_">
			<use xlink:href="#SVGID_33_"  overflow="visible"/>
		</clipPath>
		<g clip-path="url(#SVGID_34_)">
			<defs>
				<rect id="SVGID_35_" x="-1667.544" y="-45.442" width="1921.12" height="1366.13"/>
			</defs>
			<clipPath id="SVGID_36_">
				<use xlink:href="#SVGID_35_"  overflow="visible"/>
			</clipPath>
			<g clip-path="url(#SVGID_36_)" enable-background="new    ">
				<g>
					<defs>
						<rect id="SVGID_37_" x="0.094" y="-0.082" width="177.437" height="29.35"/>
					</defs>
					<clipPath id="SVGID_38_">
						<use xlink:href="#SVGID_37_"  overflow="visible"/>
					</clipPath>
					<g clip-path="url(#SVGID_38_)">
						<defs>
							<path id="SVGID_39_" d="M169.511,22.819c-4.672,0-7.937-3.444-7.937-8.374c0-4.202,3.319-7.622,7.401-7.622
								c1.621,0,3.083,0.366,4.344,1.087l0.064,0.037v3.208l-0.197-0.135c-0.945-0.647-2.464-1.3-3.738-1.3
								c-2.902,0-4.85,2.036-4.85,5.069c0,3.024,2.02,5.132,4.913,5.132c2.869,0,4.724-2.372,4.724-6.045V0.209h3.022v14.17
								C177.257,19.348,174.071,22.819,169.511,22.819"/>
						</defs>
						<clipPath id="SVGID_40_">
							<use xlink:href="#SVGID_39_"  overflow="visible"/>
						</clipPath>
						<g clip-path="url(#SVGID_40_)">
							<defs>
								<rect id="SVGID_41_" x="0.094" y="-0.082" width="177.437" height="29.35"/>
							</defs>
							<clipPath id="SVGID_42_">
								<use xlink:href="#SVGID_41_"  overflow="visible"/>
							</clipPath>
							<rect x="154.904" y="-6.461" clip-path="url(#SVGID_42_)" fill="#4D4E4C" width="29.023" height="35.95"/>
						</g>
					</g>
					<g clip-path="url(#SVGID_38_)">
						<defs>
							<path id="SVGID_43_" d="M27.662,22.914c0,3.336-2.704,6.04-6.039,6.04H6.134c-3.335,0-6.04-2.704-6.04-6.04V7.425
								c0-3.336,2.705-6.039,6.04-6.039h15.49c3.335,0,6.039,2.703,6.039,6.039V22.914"/>
						</defs>
						<clipPath id="SVGID_44_">
							<use xlink:href="#SVGID_43_"  overflow="visible"/>
						</clipPath>
						<g clip-path="url(#SVGID_44_)">
							<defs>
								<rect id="SVGID_45_" x="0.094" y="-0.082" width="177.437" height="29.35"/>
							</defs>
							<clipPath id="SVGID_46_">
								<use xlink:href="#SVGID_45_"  overflow="visible"/>
							</clipPath>
							<rect x="-6.576" y="-5.284" clip-path="url(#SVGID_46_)" fill="#286AA6" width="40.909" height="40.908"/>
						</g>
					</g>
				</g>
			</g>
		</g>
	</g>
	<g>
		<defs>
			<polyline id="SVGID_47_" points="12.304,16.762 12.304,23.133 17.107,19.948 12.304,16.762 			"/>
		</defs>
		<clipPath id="SVGID_48_">
			<use xlink:href="#SVGID_47_"  overflow="visible"/>
		</clipPath>
		<g clip-path="url(#SVGID_48_)">
			<defs>
				<rect id="SVGID_49_" x="-1667.544" y="-45.442" width="1921.12" height="1366.13"/>
			</defs>
			<clipPath id="SVGID_50_">
				<use xlink:href="#SVGID_49_"  overflow="visible"/>
			</clipPath>
			<rect x="5.634" y="10.092" clip-path="url(#SVGID_50_)" fill="#FFFFFE" width="18.144" height="19.712"/>
		</g>
	</g>
	<g>
		<defs>
			<polyline id="SVGID_51_" points="17.107,13.578 17.107,19.95 21.91,16.762 17.107,13.578 			"/>
		</defs>
		<clipPath id="SVGID_52_">
			<use xlink:href="#SVGID_51_"  overflow="visible"/>
		</clipPath>
		<g clip-path="url(#SVGID_52_)">
			<defs>
				<rect id="SVGID_53_" x="-1667.544" y="-45.442" width="1921.12" height="1366.13"/>
			</defs>
			<clipPath id="SVGID_54_">
				<use xlink:href="#SVGID_53_"  overflow="visible"/>
			</clipPath>
			<rect x="10.437" y="6.908" clip-path="url(#SVGID_54_)" fill="#FFFFFE" width="18.144" height="19.713"/>
		</g>
	</g>
	<g>
		<defs>
			<polyline id="SVGID_55_" points="17.107,19.951 17.107,26.325 21.91,23.139 17.107,19.951 			"/>
		</defs>
		<clipPath id="SVGID_56_">
			<use xlink:href="#SVGID_55_"  overflow="visible"/>
		</clipPath>
		<g clip-path="url(#SVGID_56_)">
			<defs>
				<rect id="SVGID_57_" x="-1667.544" y="-45.442" width="1921.12" height="1366.13"/>
			</defs>
			<clipPath id="SVGID_58_">
				<use xlink:href="#SVGID_57_"  overflow="visible"/>
			</clipPath>
			<rect x="10.437" y="13.28" clip-path="url(#SVGID_58_)" fill="#FFFFFE" width="18.144" height="19.715"/>
		</g>
	</g>
	<g>
		<defs>
			<polyline id="SVGID_59_" points="7.502,13.572 7.502,7.202 12.304,10.385 7.502,13.572 			"/>
		</defs>
		<clipPath id="SVGID_60_">
			<use xlink:href="#SVGID_59_"  overflow="visible"/>
		</clipPath>
		<g clip-path="url(#SVGID_60_)">
			<defs>
				<rect id="SVGID_61_" x="-1667.544" y="-45.442" width="1921.12" height="1366.13"/>
			</defs>
			<clipPath id="SVGID_62_">
				<use xlink:href="#SVGID_61_"  overflow="visible"/>
			</clipPath>
			<rect x="0.831" y="0.531" clip-path="url(#SVGID_62_)" fill="#7896C0" width="18.144" height="19.712"/>
		</g>
	</g>
	<g>
		<defs>
			<polyline id="SVGID_63_" points="12.304,10.387 12.304,4.015 17.107,7.202 12.304,10.387 			"/>
		</defs>
		<clipPath id="SVGID_64_">
			<use xlink:href="#SVGID_63_"  overflow="visible"/>
		</clipPath>
		<g clip-path="url(#SVGID_64_)">
			<defs>
				<rect id="SVGID_65_" x="-1667.544" y="-45.442" width="1921.12" height="1366.13"/>
			</defs>
			<clipPath id="SVGID_66_">
				<use xlink:href="#SVGID_65_"  overflow="visible"/>
			</clipPath>
			<rect x="5.634" y="-2.656" clip-path="url(#SVGID_66_)" fill="#7896C0" width="18.144" height="19.714"/>
		</g>
	</g>
	<g>
		<defs>
			<polyline id="SVGID_67_" points="12.304,16.762 12.304,10.391 17.107,13.576 12.304,16.762 			"/>
		</defs>
		<clipPath id="SVGID_68_">
			<use xlink:href="#SVGID_67_"  overflow="visible"/>
		</clipPath>
		<g clip-path="url(#SVGID_68_)">
			<defs>
				<rect id="SVGID_69_" x="-1667.544" y="-45.442" width="1921.12" height="1366.13"/>
			</defs>
			<clipPath id="SVGID_70_">
				<use xlink:href="#SVGID_69_"  overflow="visible"/>
			</clipPath>
			<rect x="5.634" y="3.721" clip-path="url(#SVGID_70_)" fill="#7896C0" width="18.144" height="19.712"/>
		</g>
	</g>
	<g>
		<defs>
			<polyline id="SVGID_71_" points="2.699,23.133 2.699,16.762 7.502,19.948 2.699,23.133 			"/>
		</defs>
		<clipPath id="SVGID_72_">
			<use xlink:href="#SVGID_71_"  overflow="visible"/>
		</clipPath>
		<g clip-path="url(#SVGID_72_)">
			<defs>
				<rect id="SVGID_73_" x="-1667.544" y="-45.442" width="1921.12" height="1366.13"/>
			</defs>
			<clipPath id="SVGID_74_">
				<use xlink:href="#SVGID_73_"  overflow="visible"/>
			</clipPath>
			<rect x="-3.972" y="10.092" clip-path="url(#SVGID_74_)" fill="#A0B2D1" width="18.144" height="19.712"/>
		</g>
	</g>
	<g>
		<defs>
			<polyline id="SVGID_75_" points="7.502,19.95 7.502,13.578 12.304,16.762 7.502,19.95 			"/>
		</defs>
		<clipPath id="SVGID_76_">
			<use xlink:href="#SVGID_75_"  overflow="visible"/>
		</clipPath>
		<g clip-path="url(#SVGID_76_)">
			<defs>
				<rect id="SVGID_77_" x="-1667.544" y="-45.442" width="1921.12" height="1366.13"/>
			</defs>
			<clipPath id="SVGID_78_">
				<use xlink:href="#SVGID_77_"  overflow="visible"/>
			</clipPath>
			<rect x="0.831" y="6.908" clip-path="url(#SVGID_78_)" fill="#A0B2D1" width="18.144" height="19.713"/>
		</g>
	</g>
	<g>
		<defs>
			<polyline id="SVGID_79_" points="7.502,26.325 7.502,19.951 12.304,23.139 7.502,26.325 			"/>
		</defs>
		<clipPath id="SVGID_80_">
			<use xlink:href="#SVGID_79_"  overflow="visible"/>
		</clipPath>
		<g clip-path="url(#SVGID_80_)">
			<defs>
				<rect id="SVGID_81_" x="-1667.544" y="-45.442" width="1921.12" height="1366.13"/>
			</defs>
			<clipPath id="SVGID_82_">
				<use xlink:href="#SVGID_81_"  overflow="visible"/>
			</clipPath>
			<rect x="0.831" y="13.28" clip-path="url(#SVGID_82_)" fill="#A0B2D1" width="18.144" height="19.715"/>
		</g>
	</g>
	<g>
		<defs>
			<path id="SVGID_83_" d="M140.161,34.205c0.807,0,1.464,0.27,1.969,0.812c0.476,0.518,0.714,1.18,0.714,1.98
				c0,0.801-0.238,1.461-0.714,1.98c-0.505,0.541-1.162,0.812-1.969,0.812c-0.81,0-1.465-0.271-1.971-0.812
				c-0.474-0.519-0.713-1.179-0.713-1.98c0-0.8,0.239-1.462,0.713-1.98C138.696,34.475,139.352,34.205,140.161,34.205z
				 M140.161,39.053c0.583,0,1.046-0.201,1.385-0.604c0.324-0.383,0.486-0.866,0.486-1.451c0-0.584-0.162-1.068-0.486-1.451
				c-0.339-0.404-0.801-0.606-1.385-0.606c-0.584,0-1.047,0.202-1.386,0.606c-0.325,0.383-0.487,0.867-0.487,1.451
				c0,0.585,0.162,1.068,0.487,1.451C139.114,38.852,139.577,39.053,140.161,39.053z"/>
		</defs>
		<clipPath id="SVGID_84_">
			<use xlink:href="#SVGID_83_"  overflow="visible"/>
		</clipPath>
		<g clip-path="url(#SVGID_84_)">
			<defs>
				<rect id="SVGID_85_" x="-1667.544" y="-45.442" width="1921.12" height="1366.13"/>
			</defs>
			<clipPath id="SVGID_86_">
				<use xlink:href="#SVGID_85_"  overflow="visible"/>
			</clipPath>
			<rect x="130.806" y="27.535" clip-path="url(#SVGID_86_)" fill="#777776" width="18.709" height="18.926"/>
		</g>
	</g>
	<g>
		<defs>
			<path id="SVGID_87_" d="M146.167,32.809c-0.383,0-0.669,0.085-0.861,0.254c-0.19,0.169-0.286,0.442-0.286,0.816v0.412h1.255
				v0.713h-1.255v4.697h-0.812v-4.697h-0.931v-0.713h0.931v-0.477c0-0.591,0.177-1.035,0.53-1.331
				c0.353-0.296,0.844-0.443,1.471-0.443h0.065v0.768H146.167"/>
		</defs>
		<clipPath id="SVGID_88_">
			<use xlink:href="#SVGID_87_"  overflow="visible"/>
		</clipPath>
		<g clip-path="url(#SVGID_88_)">
			<defs>
				<rect id="SVGID_89_" x="-1667.544" y="-45.442" width="1921.12" height="1366.13"/>
			</defs>
			<clipPath id="SVGID_90_">
				<use xlink:href="#SVGID_89_"  overflow="visible"/>
			</clipPath>
			<rect x="136.606" y="25.37" clip-path="url(#SVGID_90_)" fill="#777776" width="16.339" height="21.003"/>
		</g>
	</g>
	<g>
		<defs>
			<path id="SVGID_91_" d="M149.933,32.809c-0.383,0-0.669,0.085-0.861,0.254c-0.19,0.169-0.286,0.442-0.286,0.816v0.412h1.255
				v0.713h-1.255v4.697h-0.812v-4.697h-0.931v-0.713h0.931v-0.477c0-0.591,0.177-1.035,0.531-1.331
				c0.352-0.296,0.843-0.443,1.47-0.443h0.066v0.768H149.933"/>
		</defs>
		<clipPath id="SVGID_92_">
			<use xlink:href="#SVGID_91_"  overflow="visible"/>
		</clipPath>
		<g clip-path="url(#SVGID_92_)">
			<defs>
				<rect id="SVGID_93_" x="-1667.544" y="-45.442" width="1921.12" height="1366.13"/>
			</defs>
			<clipPath id="SVGID_94_">
				<use xlink:href="#SVGID_93_"  overflow="visible"/>
			</clipPath>
			<rect x="140.372" y="25.37" clip-path="url(#SVGID_94_)" fill="#777776" width="16.339" height="21.003"/>
		</g>
	</g>
	<g>
		<defs>
			<path id="SVGID_95_" d="M154.337,35.742c-0.072-0.563-0.525-0.844-1.358-0.844c-0.834,0-1.251,0.26-1.251,0.779
				c0,0.217,0.089,0.38,0.266,0.492c0.176,0.112,0.397,0.204,0.664,0.276c0.268,0.072,0.559,0.139,0.872,0.2
				c0.315,0.062,0.605,0.148,0.871,0.26c0.268,0.111,0.49,0.265,0.665,0.46c0.177,0.195,0.265,0.461,0.265,0.799
				c0,0.527-0.198,0.931-0.594,1.208c-0.397,0.277-0.935,0.417-1.613,0.417c-0.722,0-1.296-0.181-1.72-0.542
				c-0.39-0.317-0.599-0.732-0.629-1.244h0.846c0.051,0.497,0.331,0.833,0.843,1.006c0.187,0.058,0.374,0.087,0.556,0.087
				c0.186,0,0.355-0.011,0.515-0.033c0.159-0.021,0.313-0.061,0.465-0.118c0.346-0.138,0.52-0.372,0.52-0.704
				c0-0.224-0.089-0.394-0.266-0.513c-0.176-0.12-0.398-0.217-0.665-0.293c-0.267-0.074-0.557-0.142-0.87-0.205
				c-0.315-0.06-0.605-0.145-0.871-0.254c-0.269-0.108-0.491-0.256-0.666-0.443c-0.177-0.188-0.267-0.448-0.267-0.779
				c0-0.491,0.18-0.872,0.537-1.143c0.356-0.27,0.885-0.405,1.585-0.405c0.664,0,1.188,0.158,1.569,0.476
				c0.318,0.267,0.501,0.62,0.552,1.061H154.337"/>
		</defs>
		<clipPath id="SVGID_96_">
			<use xlink:href="#SVGID_95_"  overflow="visible"/>
		</clipPath>
		<g clip-path="url(#SVGID_96_)">
			<defs>
				<rect id="SVGID_97_" x="-1667.544" y="-45.442" width="1921.12" height="1366.13"/>
			</defs>
			<clipPath id="SVGID_98_">
				<use xlink:href="#SVGID_97_"  overflow="visible"/>
			</clipPath>
			<rect x="144.106" y="27.535" clip-path="url(#SVGID_98_)" fill="#777776" width="17.898" height="18.926"/>
		</g>
	</g>
	<g>
		<defs>
			<path id="SVGID_99_" d="M157.237,32.127v3.009c0.195-0.259,0.434-0.479,0.714-0.66c0.281-0.18,0.603-0.27,0.964-0.27
				c0.361,0,0.67,0.051,0.931,0.151c0.26,0.101,0.487,0.252,0.681,0.455c0.448,0.44,0.67,1.021,0.67,1.742v3.149h-0.81v-3.128
				c0-0.497-0.141-0.894-0.422-1.19c-0.282-0.296-0.647-0.444-1.093-0.444c-0.455,0-0.842,0.152-1.159,0.455
				c-0.318,0.31-0.477,0.707-0.477,1.191v3.116h-0.81v-7.575H157.237"/>
		</defs>
		<clipPath id="SVGID_100_">
			<use xlink:href="#SVGID_99_"  overflow="visible"/>
		</clipPath>
		<g clip-path="url(#SVGID_100_)">
			<defs>
				<rect id="SVGID_101_" x="-1667.544" y="-45.442" width="1921.12" height="1366.13"/>
			</defs>
			<clipPath id="SVGID_102_">
				<use xlink:href="#SVGID_101_"  overflow="visible"/>
			</clipPath>
			<rect x="149.756" y="25.457" clip-path="url(#SVGID_102_)" fill="#777776" width="18.112" height="20.917"/>
		</g>
	</g>
	<g>
		<defs>
			<path id="SVGID_103_" d="M164.91,34.205c0.808,0,1.465,0.27,1.97,0.812c0.476,0.518,0.714,1.18,0.714,1.98
				c0,0.801-0.238,1.461-0.714,1.98c-0.505,0.541-1.162,0.812-1.97,0.812c-0.807,0-1.465-0.271-1.971-0.812
				c-0.474-0.519-0.712-1.179-0.712-1.98c0-0.8,0.238-1.462,0.712-1.98C163.446,34.475,164.103,34.205,164.91,34.205z
				 M164.91,39.053c0.584,0,1.047-0.201,1.385-0.604c0.326-0.383,0.487-0.866,0.487-1.451c0-0.584-0.161-1.068-0.487-1.451
				c-0.338-0.404-0.8-0.606-1.385-0.606c-0.584,0-1.047,0.202-1.386,0.606c-0.324,0.383-0.486,0.867-0.486,1.451
				c0,0.585,0.162,1.068,0.486,1.451C163.864,38.852,164.326,39.053,164.91,39.053z"/>
		</defs>
		<clipPath id="SVGID_104_">
			<use xlink:href="#SVGID_103_"  overflow="visible"/>
		</clipPath>
		<g clip-path="url(#SVGID_104_)">
			<defs>
				<rect id="SVGID_105_" x="-1667.544" y="-45.442" width="1921.12" height="1366.13"/>
			</defs>
			<clipPath id="SVGID_106_">
				<use xlink:href="#SVGID_105_"  overflow="visible"/>
			</clipPath>
			<rect x="155.556" y="27.535" clip-path="url(#SVGID_106_)" fill="#777776" width="18.709" height="18.926"/>
		</g>
	</g>
	<g>
		<defs>
			<path id="SVGID_107_" d="M171.545,34.205v0.812h-0.098c-0.584,0-1.059,0.234-1.428,0.702c-0.346,0.448-0.52,0.983-0.52,1.602
				v2.38h-0.81v-5.41h0.81v1.331c0.174-0.562,0.547-0.978,1.126-1.246c0.238-0.114,0.527-0.172,0.866-0.172H171.545"/>
		</defs>
		<clipPath id="SVGID_108_">
			<use xlink:href="#SVGID_107_"  overflow="visible"/>
		</clipPath>
		<g clip-path="url(#SVGID_108_)">
			<defs>
				<rect id="SVGID_109_" x="-1667.544" y="-45.442" width="1921.12" height="1366.13"/>
			</defs>
			<clipPath id="SVGID_110_">
				<use xlink:href="#SVGID_109_"  overflow="visible"/>
			</clipPath>
			<rect x="162.018" y="27.535" clip-path="url(#SVGID_110_)" fill="#777776" width="16.198" height="18.838"/>
		</g>
	</g>
	<g>
		<defs>
			<path id="SVGID_111_" d="M174.727,39.053c0.728,0,1.252-0.302,1.569-0.909h0.888c-0.189,0.491-0.486,0.887-0.894,1.192
				c-0.407,0.301-0.931,0.454-1.574,0.454c-0.815,0-1.479-0.271-1.992-0.812c-0.497-0.526-0.745-1.187-0.745-1.98
				c0-0.8,0.237-1.462,0.714-1.98c0.503-0.542,1.161-0.812,1.969-0.812c0.808,0,1.464,0.27,1.969,0.812
				c0.477,0.518,0.714,1.18,0.714,1.98v0.324h-4.534c0.056,0.497,0.256,0.91,0.593,1.234
				C173.753,38.887,174.193,39.053,174.727,39.053z M174.662,34.941c-0.499,0-0.918,0.156-1.257,0.466
				c-0.316,0.295-0.51,0.68-0.583,1.158h3.679c-0.072-0.477-0.266-0.863-0.584-1.158C175.578,35.097,175.159,34.941,174.662,34.941z
				"/>
		</defs>
		<clipPath id="SVGID_112_">
			<use xlink:href="#SVGID_111_"  overflow="visible"/>
		</clipPath>
		<g clip-path="url(#SVGID_112_)">
			<defs>
				<rect id="SVGID_113_" x="-1667.544" y="-45.442" width="1921.12" height="1366.13"/>
			</defs>
			<clipPath id="SVGID_114_">
				<use xlink:href="#SVGID_113_"  overflow="visible"/>
			</clipPath>
			<rect x="165.308" y="27.535" clip-path="url(#SVGID_114_)" fill="#777776" width="18.708" height="18.926"/>
		</g>
	</g>
</g>
</svg>
