<?xml version="1.0" encoding="utf-8"?>
<!-- Generator: Adobe Illustrator 17.0.0, SVG Export Plug-In . SVG Version: 6.00 Build 0)  -->
<!DOCTYPE svg PUBLIC "-//W3C//DTD SVG 1.1//EN" "http://www.w3.org/Graphics/SVG/1.1/DTD/svg11.dtd">
<svg version="1.1" id="Layer_1" xmlns="http://www.w3.org/2000/svg" xmlns:xlink="http://www.w3.org/1999/xlink" x="0px" y="0px"
	 width="35px" height="35px" viewBox="0 0 35 35" enable-background="new 0 0 35 35" xml:space="preserve">
<g>
	<g>
		<defs>
			<polygon id="SVGID_1_" points="0.129,34.794 0.129,-0.692 34.871,-0.692 34.871,17.051 34.871,34.794 			"/>
		</defs>
		<clipPath id="SVGID_2_">
			<use xlink:href="#SVGID_1_"  overflow="visible"/>
		</clipPath>
		<g clip-path="url(#SVGID_2_)" enable-background="new    ">
			<g>
				<defs>
					<rect id="SVGID_3_" x="0.053" y="-0.044" width="35.245" height="35.245"/>
				</defs>
				<clipPath id="SVGID_4_">
					<use xlink:href="#SVGID_3_"  overflow="visible"/>
				</clipPath>
				<g clip-path="url(#SVGID_4_)">
					<defs>
						<path id="SVGID_5_" d="M34.796,27.337c0,4.118-3.407,7.456-7.61,7.456H7.664c-4.203,0-7.611-3.338-7.611-7.456V8.216
							c0-4.118,3.408-7.455,7.611-7.455h19.521c4.203,0,7.61,3.336,7.61,7.455V27.337"/>
					</defs>
					<clipPath id="SVGID_6_">
						<use xlink:href="#SVGID_5_"  overflow="visible"/>
					</clipPath>
					<g clip-path="url(#SVGID_6_)">
						<defs>
							<rect id="SVGID_7_" x="0.053" y="-0.044" width="35.245" height="35.245"/>
						</defs>
						<clipPath id="SVGID_8_">
							<use xlink:href="#SVGID_7_"  overflow="visible"/>
						</clipPath>
						<rect x="-4.982" y="-4.274" clip-path="url(#SVGID_8_)" fill="#84AF5F" width="44.813" height="44.103"/>
					</g>
				</g>
			</g>
		</g>
	</g>
	<g>
		<defs>
			<polyline id="SVGID_9_" points="15.441,19.743 15.441,27.608 21.494,23.676 15.441,19.743 			"/>
		</defs>
		<clipPath id="SVGID_10_">
			<use xlink:href="#SVGID_9_"  overflow="visible"/>
		</clipPath>
		<rect x="10.406" y="14.708" clip-path="url(#SVGID_10_)" fill="#FFFFFE" width="16.123" height="17.935"/>
	</g>
	<g>
		<defs>
			<polyline id="SVGID_11_" points="21.494,15.812 21.494,23.679 27.546,19.743 21.494,15.812 			"/>
		</defs>
		<clipPath id="SVGID_12_">
			<use xlink:href="#SVGID_11_"  overflow="visible"/>
		</clipPath>
		<rect x="16.458" y="10.777" clip-path="url(#SVGID_12_)" fill="#FFFFFE" width="16.123" height="17.936"/>
	</g>
	<g>
		<defs>
			<polyline id="SVGID_13_" points="21.494,23.68 21.494,31.549 27.546,27.615 21.494,23.68 			"/>
		</defs>
		<clipPath id="SVGID_14_">
			<use xlink:href="#SVGID_13_"  overflow="visible"/>
		</clipPath>
		<rect x="16.458" y="18.645" clip-path="url(#SVGID_14_)" fill="#FFFFFE" width="16.123" height="17.939"/>
	</g>
	<g>
		<defs>
			<polygon id="SVGID_15_" points="9.388,15.805 9.388,7.94 15.441,11.871 			"/>
		</defs>
		<clipPath id="SVGID_16_">
			<use xlink:href="#SVGID_15_"  overflow="visible"/>
		</clipPath>
		<g clip-path="url(#SVGID_16_)" enable-background="new    ">
			<g>
				<defs>
					<rect id="SVGID_17_" x="9.116" y="7.005" width="7.049" height="9.063"/>
				</defs>
				<clipPath id="SVGID_18_">
					<use xlink:href="#SVGID_17_"  overflow="visible"/>
				</clipPath>
				<g clip-path="url(#SVGID_18_)">
					<defs>
						<rect id="SVGID_19_" x="9.388" y="7.94" width="6.053" height="7.865"/>
					</defs>
					<clipPath id="SVGID_20_">
						<use xlink:href="#SVGID_19_"  overflow="visible"/>
					</clipPath>
					<g clip-path="url(#SVGID_20_)">
						<defs>
							<rect id="SVGID_21_" x="9.116" y="7.005" width="7.049" height="9.063"/>
						</defs>
						<clipPath id="SVGID_22_">
							<use xlink:href="#SVGID_21_"  overflow="visible"/>
						</clipPath>
						<rect x="4.353" y="2.905" clip-path="url(#SVGID_22_)" fill="#B1CA94" width="16.123" height="17.935"/>
					</g>
				</g>
			</g>
		</g>
	</g>
	<g>
		<defs>
			<polyline id="SVGID_23_" points="15.441,11.873 15.441,4.006 21.494,7.94 15.441,11.873 			"/>
		</defs>
		<clipPath id="SVGID_24_">
			<use xlink:href="#SVGID_23_"  overflow="visible"/>
		</clipPath>
		<rect x="10.406" y="-1.029" clip-path="url(#SVGID_24_)" fill="#B1CA94" width="16.123" height="17.938"/>
	</g>
	<g>
		<defs>
			<polyline id="SVGID_25_" points="15.441,19.743 15.441,11.878 21.494,15.81 15.441,19.743 			"/>
		</defs>
		<clipPath id="SVGID_26_">
			<use xlink:href="#SVGID_25_"  overflow="visible"/>
		</clipPath>
		<rect x="10.406" y="6.843" clip-path="url(#SVGID_26_)" fill="#B1CA94" width="16.123" height="17.935"/>
	</g>
	<g>
		<defs>
			<polyline id="SVGID_27_" points="3.335,27.608 3.335,19.743 9.388,23.676 3.335,27.608 			"/>
		</defs>
		<clipPath id="SVGID_28_">
			<use xlink:href="#SVGID_27_"  overflow="visible"/>
		</clipPath>
		<rect x="-1.7" y="14.708" clip-path="url(#SVGID_28_)" fill="#CBDAB1" width="16.123" height="17.935"/>
	</g>
	<g>
		<defs>
			<polyline id="SVGID_29_" points="9.388,23.679 9.388,15.812 15.441,19.743 9.388,23.679 			"/>
		</defs>
		<clipPath id="SVGID_30_">
			<use xlink:href="#SVGID_29_"  overflow="visible"/>
		</clipPath>
		<rect x="4.353" y="10.777" clip-path="url(#SVGID_30_)" fill="#CBDAB1" width="16.123" height="17.936"/>
	</g>
	<g>
		<defs>
			<polyline id="SVGID_31_" points="9.388,31.549 9.388,23.68 15.441,27.615 9.388,31.549 			"/>
		</defs>
		<clipPath id="SVGID_32_">
			<use xlink:href="#SVGID_31_"  overflow="visible"/>
		</clipPath>
		<rect x="4.353" y="18.645" clip-path="url(#SVGID_32_)" fill="#CBDAB1" width="16.123" height="17.939"/>
	</g>
</g>
</svg>
