<?xml version="1.0" encoding="utf-8"?>
<!-- Generator: Adobe Illustrator 17.0.0, SVG Export Plug-In . SVG Version: 6.00 Build 0)  -->
<!DOCTYPE svg PUBLIC "-//W3C//DTD SVG 1.1//EN" "http://www.w3.org/Graphics/SVG/1.1/DTD/svg11.dtd">
<svg version="1.1" id="Layer_1" xmlns="http://www.w3.org/2000/svg" xmlns:xlink="http://www.w3.org/1999/xlink" x="0px" y="0px"
	 width="35px" height="35px" viewBox="0 0 35 35" enable-background="new 0 0 35 35" xml:space="preserve">
<g>
	<g>
		<defs>
			<polygon id="SVGID_1_" points="-0.169,34.845 -0.169,-1.531 35.169,-1.531 34.737,16.674 35.169,34.845 			"/>
		</defs>
		<clipPath id="SVGID_2_">
			<use xlink:href="#SVGID_1_"  overflow="visible"/>
		</clipPath>
		<g clip-path="url(#SVGID_2_)" enable-background="new    ">
			<g>
				<defs>
					<rect id="SVGID_3_" x="-0.246" y="-0.899" width="36" height="36"/>
				</defs>
				<clipPath id="SVGID_4_">
					<use xlink:href="#SVGID_3_"  overflow="visible"/>
				</clipPath>
				<g clip-path="url(#SVGID_4_)">
					<defs>
						<path id="SVGID_5_" d="M34.662,26.973c0,4.123-3.035,7.871-7.31,7.871H7.496c-4.275,0-7.349-3.748-7.349-7.871V7.829
							c0-4.123,3.074-7.87,7.349-7.87h19.856c4.275,0,7.31,3.747,7.31,7.87V26.973"/>
					</defs>
					<clipPath id="SVGID_6_">
						<use xlink:href="#SVGID_5_"  overflow="visible"/>
					</clipPath>
					<g clip-path="url(#SVGID_6_)">
						<defs>
							<rect id="SVGID_7_" x="-0.246" y="-0.899" width="36" height="36"/>
						</defs>
						<clipPath id="SVGID_8_">
							<use xlink:href="#SVGID_7_"  overflow="visible"/>
						</clipPath>
						<rect x="-5.246" y="-5.041" clip-path="url(#SVGID_8_)" fill="#D5D5D5" width="45.338" height="44.886"/>
					</g>
				</g>
			</g>
		</g>
	</g>
	<g>
		<defs>
			<polyline id="SVGID_9_" points="15.434,19.37 15.434,27.244 21.447,23.308 15.434,19.37 			"/>
		</defs>
		<clipPath id="SVGID_10_">
			<use xlink:href="#SVGID_9_"  overflow="visible"/>
		</clipPath>
		<polygon clip-path="url(#SVGID_10_)" fill="#FFFFFF" points="10.406,32.479 26.562,32.479 26.331,14.486 10.551,14.486 		"/>
	</g>
	<g>
		<defs>
			<polyline id="SVGID_11_" points="21.447,15.435 21.447,23.31 27.46,19.37 21.447,15.435 			"/>
		</defs>
		<clipPath id="SVGID_12_">
			<use xlink:href="#SVGID_11_"  overflow="visible"/>
		</clipPath>
		<rect x="16.564" y="10.551" clip-path="url(#SVGID_12_)" fill="#FFFFFF" width="15.78" height="17.643"/>
	</g>
	<g>
		<defs>
			<polyline id="SVGID_13_" points="21.447,23.311 21.562,31.518 27.46,27.252 21.447,23.311 			"/>
		</defs>
		<clipPath id="SVGID_14_">
			<use xlink:href="#SVGID_13_"  overflow="visible"/>
		</clipPath>
		<polygon clip-path="url(#SVGID_14_)" fill="#FFFFFF" points="16.562,36.518 32.719,36.518 32.344,18.428 16.564,18.428 		"/>
	</g>
	<g>
		<defs>
			<polyline id="SVGID_15_" points="9.421,15.427 9.421,7.553 15.434,11.488 9.421,15.427 			"/>
		</defs>
		<clipPath id="SVGID_16_">
			<use xlink:href="#SVGID_15_"  overflow="visible"/>
		</clipPath>
		<rect x="4.537" y="2.669" clip-path="url(#SVGID_16_)" fill="#FFFFFF" width="15.78" height="17.641"/>
	</g>
	<g>
		<defs>
			<polyline id="SVGID_17_" points="15.434,11.491 15.434,3.614 21.447,7.553 15.434,11.491 			"/>
		</defs>
		<clipPath id="SVGID_18_">
			<use xlink:href="#SVGID_17_"  overflow="visible"/>
		</clipPath>
		<polygon clip-path="url(#SVGID_18_)" fill="#FFFFFF" points="10.551,16.374 26.331,16.374 26.562,-1.715 10.406,-1.715 		"/>
	</g>
	<g>
		<defs>
			<polyline id="SVGID_19_" points="15.434,19.37 15.434,11.496 21.447,15.432 15.434,19.37 			"/>
		</defs>
		<clipPath id="SVGID_20_">
			<use xlink:href="#SVGID_19_"  overflow="visible"/>
		</clipPath>
		<rect x="10.551" y="6.612" clip-path="url(#SVGID_20_)" fill="#FFFFFF" width="15.78" height="17.641"/>
	</g>
	<g>
		<defs>
			<polyline id="SVGID_21_" points="3.408,27.244 3.408,19.37 9.421,23.308 3.408,27.244 			"/>
		</defs>
		<clipPath id="SVGID_22_">
			<use xlink:href="#SVGID_21_"  overflow="visible"/>
		</clipPath>
		<polygon clip-path="url(#SVGID_22_)" fill="#FFFFFF" points="-1.907,32.479 14.249,32.479 14.305,14.486 -1.907,14.417 		"/>
	</g>
	<g>
		<defs>
			<polyline id="SVGID_23_" points="9.421,23.31 9.421,15.435 15.434,19.37 9.421,23.31 			"/>
		</defs>
		<clipPath id="SVGID_24_">
			<use xlink:href="#SVGID_23_"  overflow="visible"/>
		</clipPath>
		<rect x="4.537" y="10.551" clip-path="url(#SVGID_24_)" fill="#FFFFFF" width="15.78" height="17.643"/>
	</g>
	<g>
		<defs>
			<polyline id="SVGID_25_" points="9.249,31.518 9.421,23.311 15.434,27.252 9.249,31.518 			"/>
		</defs>
		<clipPath id="SVGID_26_">
			<use xlink:href="#SVGID_25_"  overflow="visible"/>
		</clipPath>
		<polygon clip-path="url(#SVGID_26_)" fill="#FFFFFF" points="4.249,36.518 20.406,36.518 20.318,18.428 4.537,18.428 		"/>
	</g>
</g>
</svg>
