<?xml version="1.0" encoding="utf-8"?>
<!-- Generator: Adobe Illustrator 17.0.0, SVG Export Plug-In . SVG Version: 6.00 Build 0)  -->
<!DOCTYPE svg PUBLIC "-//W3C//DTD SVG 1.1//EN" "http://www.w3.org/Graphics/SVG/1.1/DTD/svg11.dtd">
<svg version="1.1" id="Layer_1" xmlns="http://www.w3.org/2000/svg" xmlns:xlink="http://www.w3.org/1999/xlink" x="0px" y="0px"
	 width="35px" height="35px" viewBox="0 0 35 35" enable-background="new 0 0 35 35" xml:space="preserve">
<g>
	<g>
		<defs>
			<polygon id="SVGID_1_" points="0.182,34.58 0.182,-1.233 17.5,-1.233 34.818,-1.233 34.818,34.58 			"/>
		</defs>
		<clipPath id="SVGID_2_">
			<use xlink:href="#SVGID_1_"  overflow="visible"/>
		</clipPath>
		<g clip-path="url(#SVGID_2_)" enable-background="new    ">
			<g>
				<defs>
					<rect id="SVGID_3_" x="0.106" y="-0.658" width="34.694" height="35.631"/>
				</defs>
				<clipPath id="SVGID_4_">
					<use xlink:href="#SVGID_3_"  overflow="visible"/>
				</clipPath>
				<g clip-path="url(#SVGID_4_)">
					<defs>
						<path id="SVGID_5_" d="M34.743,27.055c0,4.156-3.397,7.525-7.587,7.525H7.694c-4.19,0-7.588-3.368-7.588-7.525V7.757
							c0-4.156,3.398-7.524,7.588-7.524h19.462c4.19,0,7.587,3.367,7.587,7.524V27.055"/>
					</defs>
					<clipPath id="SVGID_6_">
						<use xlink:href="#SVGID_5_"  overflow="visible"/>
					</clipPath>
					<g clip-path="url(#SVGID_6_)">
						<defs>
							<rect id="SVGID_7_" x="0.106" y="-0.658" width="34.694" height="35.631"/>
						</defs>
						<clipPath id="SVGID_8_">
							<use xlink:href="#SVGID_7_"  overflow="visible"/>
						</clipPath>
						<rect x="-4.582" y="-4.455" clip-path="url(#SVGID_8_)" fill="#286AA6" width="44.013" height="43.723"/>
					</g>
				</g>
			</g>
		</g>
	</g>
	<g>
		<defs>
			<polyline id="SVGID_9_" points="15.447,19.391 15.447,27.328 21.481,23.36 15.447,19.391 			"/>
		</defs>
		<clipPath id="SVGID_10_">
			<use xlink:href="#SVGID_9_"  overflow="visible"/>
		</clipPath>
		<rect x="10.759" y="14.702" clip-path="url(#SVGID_10_)" fill="#FFFFFE" width="15.411" height="17.314"/>
	</g>
	<g>
		<defs>
			<polyline id="SVGID_11_" points="21.481,15.424 21.481,23.363 27.516,19.391 21.481,15.424 			"/>
		</defs>
		<clipPath id="SVGID_12_">
			<use xlink:href="#SVGID_11_"  overflow="visible"/>
		</clipPath>
		<rect x="16.793" y="10.736" clip-path="url(#SVGID_12_)" fill="#FFFFFE" width="15.411" height="17.315"/>
	</g>
	<g>
		<defs>
			<polyline id="SVGID_13_" points="21.481,23.364 21.481,31.305 27.516,27.336 21.481,23.364 			"/>
		</defs>
		<clipPath id="SVGID_14_">
			<use xlink:href="#SVGID_13_"  overflow="visible"/>
		</clipPath>
		<rect x="16.793" y="18.676" clip-path="url(#SVGID_14_)" fill="#FFFFFE" width="15.411" height="17.318"/>
	</g>
	<g>
		<defs>
			<polyline id="SVGID_15_" points="9.413,15.416 9.413,7.479 15.447,11.446 9.413,15.416 			"/>
		</defs>
		<clipPath id="SVGID_16_">
			<use xlink:href="#SVGID_15_"  overflow="visible"/>
		</clipPath>
		<rect x="4.725" y="2.791" clip-path="url(#SVGID_16_)" fill="#7896C0" width="15.411" height="17.314"/>
	</g>
	<g>
		<defs>
			<polyline id="SVGID_17_" points="15.447,11.448 15.447,3.508 21.481,7.479 15.447,11.448 			"/>
		</defs>
		<clipPath id="SVGID_18_">
			<use xlink:href="#SVGID_17_"  overflow="visible"/>
		</clipPath>
		<rect x="10.759" y="-1.18" clip-path="url(#SVGID_18_)" fill="#7896C0" width="15.411" height="17.317"/>
	</g>
	<g>
		<defs>
			<polyline id="SVGID_19_" points="15.447,19.391 15.447,11.453 21.481,15.421 15.447,19.391 			"/>
		</defs>
		<clipPath id="SVGID_20_">
			<use xlink:href="#SVGID_19_"  overflow="visible"/>
		</clipPath>
		<rect x="10.759" y="6.765" clip-path="url(#SVGID_20_)" fill="#7896C0" width="15.411" height="17.314"/>
	</g>
	<g>
		<defs>
			<polyline id="SVGID_21_" points="3.379,27.328 3.379,19.391 9.413,23.36 3.379,27.328 			"/>
		</defs>
		<clipPath id="SVGID_22_">
			<use xlink:href="#SVGID_21_"  overflow="visible"/>
		</clipPath>
		<rect x="-1.31" y="14.702" clip-path="url(#SVGID_22_)" fill="#A0B2D1" width="15.411" height="17.314"/>
	</g>
	<g>
		<defs>
			<polyline id="SVGID_23_" points="9.413,23.363 9.413,15.424 15.447,19.391 9.413,23.363 			"/>
		</defs>
		<clipPath id="SVGID_24_">
			<use xlink:href="#SVGID_23_"  overflow="visible"/>
		</clipPath>
		<rect x="4.725" y="10.736" clip-path="url(#SVGID_24_)" fill="#A0B2D1" width="15.411" height="17.315"/>
	</g>
	<g>
		<defs>
			<polyline id="SVGID_25_" points="9.413,31.305 9.413,23.364 15.447,27.336 9.413,31.305 			"/>
		</defs>
		<clipPath id="SVGID_26_">
			<use xlink:href="#SVGID_25_"  overflow="visible"/>
		</clipPath>
		<rect x="4.725" y="18.676" clip-path="url(#SVGID_26_)" fill="#A0B2D1" width="15.411" height="17.318"/>
	</g>
</g>
</svg>
