<?xml version="1.0" encoding="utf-8"?>
<!-- Generator: Adobe Illustrator 17.0.0, SVG Export Plug-In . SVG Version: 6.00 Build 0)  -->
<!DOCTYPE svg PUBLIC "-//W3C//DTD SVG 1.1//EN" "http://www.w3.org/Graphics/SVG/1.1/DTD/svg11.dtd">
<svg version="1.1" id="Layer_1" xmlns="http://www.w3.org/2000/svg" xmlns:xlink="http://www.w3.org/1999/xlink" x="0px" y="0px"
	 width="169.75px" height="40px" viewBox="0 0 169.75 40" enable-background="new 0 0 169.75 40" xml:space="preserve">
<g>
	<g>
		<defs>
			<path id="SVGID_1_" d="M44.802,28.234c-1.51,0-3.08-0.277-4.798-0.846l-0.108-0.037l0.692-2.628l0.118,0.034
				c1.293,0.352,2.631,0.716,3.976,0.716c1.477,0,4.912-0.434,4.912-4.441v-6.719c0-3.349-2.244-5.102-4.46-5.102
				c-3.383,0-4.583,2.795-4.583,5.191c0,2.667,1.947,4.529,4.732,4.529c1.18,0,2.29-0.553,3.316-1.153l0.18-0.104v3.009
				l-0.062,0.033c-1.056,0.574-2.48,0.976-3.462,0.976c-4.33,0-7.595-3.2-7.595-7.44c0-4.521,3.194-7.803,7.595-7.803
				c4.527,0,7.232,3.693,7.232,7.263v6.419C52.487,25.129,49.543,28.234,44.802,28.234"/>
		</defs>
		<clipPath id="SVGID_2_">
			<use xlink:href="#SVGID_1_"  overflow="visible"/>
		</clipPath>
		<g clip-path="url(#SVGID_2_)">
			<defs>
				<rect id="SVGID_3_" x="-1425.521" y="-45.511" width="1922.131" height="1366.849"/>
			</defs>
			<clipPath id="SVGID_4_">
				<use xlink:href="#SVGID_3_"  overflow="visible"/>
			</clipPath>
			<rect x="30.987" y="-0.222" clip-path="url(#SVGID_4_)" fill="#777776" width="28.175" height="35.13"/>
		</g>
	</g>
	<g>
		<defs>
			<path id="SVGID_5_" d="M57.673,21.392h-2.892V6.752h2.773v1.469c0.875-1.221,2.078-1.77,3.858-1.77h0.721v2.76h-0.51
				c-2.658,0-3.949,1.747-3.949,5.34V21.392"/>
		</defs>
		<clipPath id="SVGID_6_">
			<use xlink:href="#SVGID_5_"  overflow="visible"/>
		</clipPath>
		<g clip-path="url(#SVGID_6_)">
			<defs>
				<rect id="SVGID_7_" x="-1425.521" y="-45.511" width="1922.131" height="1366.849"/>
			</defs>
			<clipPath id="SVGID_8_">
				<use xlink:href="#SVGID_7_"  overflow="visible"/>
			</clipPath>
			<rect x="48.107" y="-0.222" clip-path="url(#SVGID_8_)" fill="#777776" width="20.7" height="28.289"/>
		</g>
	</g>
	<g>
		<defs>
			<path id="SVGID_9_" d="M70.143,21.72c-1.363,0-2.752-0.383-4.016-1.108c-1.751-1.004-3.016-2.598-3.564-4.486
				c-0.569-1.959-0.292-4.056,0.777-5.905c1.394-2.414,3.847-3.855,6.556-3.855c1.348,0,2.686,0.358,3.871,1.036
				c2.79,1.6,4.08,4.136,3.833,7.541l-0.008,0.112l-11.407-0.174l0.125-2.599l0.117,0.004l8.013,0.112
				c-0.324-1.131-0.759-1.858-2.056-2.604C71.635,9.366,70.85,9.15,70.049,9.15c-1.662,0-3.153,0.935-4.098,2.569
				c-0.693,1.198-0.918,2.508-0.628,3.689c0.283,1.17,1.062,2.167,2.186,2.814c0.868,0.498,1.665,0.74,2.442,0.74
				c1.303,0,2.534-0.701,3.869-2.205l0.074-0.084l2.34,1.754l-0.066,0.093C74.768,20.554,72.572,21.72,70.143,21.72"/>
		</defs>
		<clipPath id="SVGID_10_">
			<use xlink:href="#SVGID_9_"  overflow="visible"/>
		</clipPath>
		<g clip-path="url(#SVGID_10_)">
			<defs>
				<rect id="SVGID_11_" x="-1425.521" y="-45.511" width="1922.131" height="1366.849"/>
			</defs>
			<clipPath id="SVGID_12_">
				<use xlink:href="#SVGID_11_"  overflow="visible"/>
			</clipPath>
			<rect x="55.6" y="-0.307" clip-path="url(#SVGID_12_)" fill="#777776" width="28.703" height="28.701"/>
		</g>
	</g>
	<g>
		<defs>
			<path id="SVGID_13_" d="M86.861,21.72c-1.364,0-2.754-0.383-4.017-1.108c-1.751-1.004-3.016-2.598-3.566-4.486
				c-0.567-1.959-0.29-4.056,0.779-5.905c1.396-2.414,3.847-3.855,6.558-3.855c1.348,0,2.685,0.358,3.87,1.036
				c2.788,1.6,4.078,4.136,3.832,7.541l-0.01,0.112l-11.406-0.174l0.124-2.599l0.118,0.004l8.014,0.112
				c-0.325-1.131-0.761-1.858-2.057-2.604c-0.749-0.428-1.532-0.645-2.334-0.645c-1.663,0-3.156,0.935-4.099,2.569
				c-0.694,1.198-0.919,2.508-0.628,3.689c0.284,1.17,1.064,2.167,2.189,2.814c0.866,0.498,1.665,0.74,2.439,0.74
				c1.304,0,2.535-0.701,3.869-2.205l0.074-0.084l2.343,1.754l-0.066,0.093C91.488,20.554,89.291,21.72,86.861,21.72"/>
		</defs>
		<clipPath id="SVGID_14_">
			<use xlink:href="#SVGID_13_"  overflow="visible"/>
		</clipPath>
		<g clip-path="url(#SVGID_14_)">
			<defs>
				<rect id="SVGID_15_" x="-1425.521" y="-45.511" width="1922.131" height="1366.849"/>
			</defs>
			<clipPath id="SVGID_16_">
				<use xlink:href="#SVGID_15_"  overflow="visible"/>
			</clipPath>
			<rect x="72.317" y="-0.307" clip-path="url(#SVGID_16_)" fill="#777776" width="28.705" height="28.701"/>
		</g>
	</g>
	<g>
		<defs>
			<path id="SVGID_17_" d="M108.767,21.392h-2.892v-8.519c0-2.055-1.495-3.661-3.405-3.661c-1.91,0-3.406,1.607-3.406,3.661v8.519
				h-2.892v-8.519c0-3.78,2.589-6.421,6.298-6.421c3.707,0,6.297,2.641,6.297,6.421V21.392"/>
		</defs>
		<clipPath id="SVGID_18_">
			<use xlink:href="#SVGID_17_"  overflow="visible"/>
		</clipPath>
		<g clip-path="url(#SVGID_18_)">
			<defs>
				<rect id="SVGID_19_" x="-1425.521" y="-45.511" width="1922.131" height="1366.849"/>
			</defs>
			<clipPath id="SVGID_20_">
				<use xlink:href="#SVGID_19_"  overflow="visible"/>
			</clipPath>
			<rect x="89.498" y="-0.222" clip-path="url(#SVGID_20_)" fill="#777776" width="25.943" height="28.289"/>
		</g>
	</g>
	<g>
		<defs>
			<path id="SVGID_21_" d="M125.649,21.694c-1.726,0-3.29-0.728-4.22-1.957c-0.931,1.229-2.495,1.957-4.219,1.957
				c-2.974,0-5.305-2.215-5.305-5.041V6.752h2.891v9.302c0,1.749,0.971,2.878,2.472,2.878c1.801,0,2.713-1.11,2.713-3.3v-8.88h2.895
				v8.88c0,2.222,0.888,3.3,2.713,3.3c1.499,0,2.47-1.13,2.47-2.878V6.752h2.892v9.901
				C130.952,19.479,128.622,21.694,125.649,21.694"/>
		</defs>
		<clipPath id="SVGID_22_">
			<use xlink:href="#SVGID_21_"  overflow="visible"/>
		</clipPath>
		<g clip-path="url(#SVGID_22_)">
			<defs>
				<rect id="SVGID_23_" x="-1425.521" y="-45.511" width="1922.131" height="1366.849"/>
			</defs>
			<clipPath id="SVGID_24_">
				<use xlink:href="#SVGID_23_"  overflow="visible"/>
			</clipPath>
			<rect x="105.231" y="0.078" clip-path="url(#SVGID_24_)" fill="#4D4E4C" width="32.395" height="28.29"/>
		</g>
	</g>
	<g>
		<defs>
			<path id="SVGID_25_" d="M135.54,5.372c-1.128,0-1.719-0.861-1.719-1.711c0-0.848,0.591-1.708,1.719-1.708
				c1.127,0,1.716,0.86,1.716,1.708C137.256,4.511,136.667,5.372,135.54,5.372z M134.093,21.392h2.893V6.752h-2.893V21.392z"/>
		</defs>
		<clipPath id="SVGID_26_">
			<use xlink:href="#SVGID_25_"  overflow="visible"/>
		</clipPath>
		<g clip-path="url(#SVGID_26_)">
			<defs>
				<rect id="SVGID_27_" x="-1425.521" y="-45.511" width="1922.131" height="1366.849"/>
			</defs>
			<clipPath id="SVGID_28_">
				<use xlink:href="#SVGID_27_"  overflow="visible"/>
			</clipPath>
			<rect x="127.147" y="-4.721" clip-path="url(#SVGID_28_)" fill="#4D4E4C" width="16.783" height="32.787"/>
		</g>
	</g>
	<g>
		<defs>
			<path id="SVGID_29_" d="M152.723,21.392h-2.894v-8.519c0-2.055-1.495-3.661-3.405-3.661c-1.91,0-3.406,1.607-3.406,3.661v8.519
				h-2.893v-8.519c0-3.78,2.591-6.421,6.299-6.421c3.709,0,6.299,2.641,6.299,6.421V21.392"/>
		</defs>
		<clipPath id="SVGID_30_">
			<use xlink:href="#SVGID_29_"  overflow="visible"/>
		</clipPath>
		<g clip-path="url(#SVGID_30_)">
			<defs>
				<rect id="SVGID_31_" x="-1425.521" y="-45.511" width="1922.131" height="1366.849"/>
			</defs>
			<clipPath id="SVGID_32_">
				<use xlink:href="#SVGID_31_"  overflow="visible"/>
			</clipPath>
			<rect x="133.452" y="-0.222" clip-path="url(#SVGID_32_)" fill="#4D4E4C" width="25.946" height="28.289"/>
		</g>
	</g>
	<g>
		<defs>
			<polygon id="SVGID_33_" points="0.117,27.54 0.117,0.15 169.633,0.15 169.633,13.845 169.633,27.54 			"/>
		</defs>
		<clipPath id="SVGID_34_">
			<use xlink:href="#SVGID_33_"  overflow="visible"/>
		</clipPath>
		<g clip-path="url(#SVGID_34_)">
			<defs>
				<rect id="SVGID_35_" x="-1425.521" y="-45.511" width="1922.131" height="1366.849"/>
			</defs>
			<clipPath id="SVGID_36_">
				<use xlink:href="#SVGID_35_"  overflow="visible"/>
			</clipPath>
			<g clip-path="url(#SVGID_36_)" enable-background="new    ">
				<g>
					<defs>
						<rect id="SVGID_37_" x="0.06" y="-0.127" width="170.856" height="28.031"/>
					</defs>
					<clipPath id="SVGID_38_">
						<use xlink:href="#SVGID_37_"  overflow="visible"/>
					</clipPath>
					<g clip-path="url(#SVGID_38_)">
						<defs>
							<path id="SVGID_39_" d="M162.219,21.694c-4.472,0-7.597-3.282-7.597-7.979c0-4.004,3.177-7.263,7.084-7.263
								c1.552,0,2.951,0.349,4.158,1.035l0.061,0.035v3.057l-0.189-0.129c-0.904-0.617-2.359-1.239-3.578-1.239
								c-2.777,0-4.642,1.94-4.642,4.83c0,2.881,1.934,4.89,4.702,4.89c2.746,0,4.521-2.261,4.521-5.76V0.15h2.892v13.503
								C169.633,18.387,166.584,21.694,162.219,21.694"/>
						</defs>
						<clipPath id="SVGID_40_">
							<use xlink:href="#SVGID_39_"  overflow="visible"/>
						</clipPath>
						<g clip-path="url(#SVGID_40_)">
							<defs>
								<rect id="SVGID_41_" x="0.06" y="-0.127" width="170.856" height="28.031"/>
							</defs>
							<clipPath id="SVGID_42_">
								<use xlink:href="#SVGID_41_"  overflow="visible"/>
							</clipPath>
							<rect x="147.949" y="-6.524" clip-path="url(#SVGID_42_)" fill="#4D4E4C" width="28.359" height="34.892"/>
						</g>
					</g>
					<g clip-path="url(#SVGID_38_)">
						<defs>
							<path id="SVGID_43_" d="M26.447,21.785c0,3.179-2.588,5.755-5.78,5.755H5.84c-3.192,0-5.781-2.576-5.781-5.755V7.026
								c0-3.179,2.589-5.754,5.781-5.754h14.827c3.192,0,5.78,2.575,5.78,5.754V21.785"/>
						</defs>
						<clipPath id="SVGID_44_">
							<use xlink:href="#SVGID_43_"  overflow="visible"/>
						</clipPath>
						<g clip-path="url(#SVGID_44_)">
							<defs>
								<rect id="SVGID_45_" x="0.06" y="-0.127" width="170.856" height="28.031"/>
							</defs>
							<clipPath id="SVGID_46_">
								<use xlink:href="#SVGID_45_"  overflow="visible"/>
							</clipPath>
							<rect x="-6.615" y="-5.402" clip-path="url(#SVGID_46_)" fill="#D5D5D5" width="39.735" height="39.616"/>
						</g>
					</g>
				</g>
			</g>
		</g>
	</g>
	<g>
		<defs>
			<polyline id="SVGID_47_" points="11.747,15.923 11.747,21.994 16.344,18.959 11.747,15.923 			"/>
		</defs>
		<clipPath id="SVGID_48_">
			<use xlink:href="#SVGID_47_"  overflow="visible"/>
		</clipPath>
		<g clip-path="url(#SVGID_48_)">
			<defs>
				<rect id="SVGID_49_" x="-1425.521" y="-45.511" width="1922.131" height="1366.849"/>
			</defs>
			<clipPath id="SVGID_50_">
				<use xlink:href="#SVGID_49_"  overflow="visible"/>
			</clipPath>
			<rect x="5.073" y="9.249" clip-path="url(#SVGID_50_)" fill="#FFFFFF" width="17.945" height="19.419"/>
		</g>
	</g>
	<g>
		<defs>
			<polyline id="SVGID_51_" points="16.344,12.889 16.344,18.961 20.941,15.923 16.344,12.889 			"/>
		</defs>
		<clipPath id="SVGID_52_">
			<use xlink:href="#SVGID_51_"  overflow="visible"/>
		</clipPath>
		<g clip-path="url(#SVGID_52_)">
			<defs>
				<rect id="SVGID_53_" x="-1425.521" y="-45.511" width="1922.131" height="1366.849"/>
			</defs>
			<clipPath id="SVGID_54_">
				<use xlink:href="#SVGID_53_"  overflow="visible"/>
			</clipPath>
			<rect x="9.67" y="6.215" clip-path="url(#SVGID_54_)" fill="#FFFFFF" width="17.945" height="19.42"/>
		</g>
	</g>
	<g>
		<defs>
			<polyline id="SVGID_55_" points="16.344,18.962 16.344,25.035 20.941,21.999 16.344,18.962 			"/>
		</defs>
		<clipPath id="SVGID_56_">
			<use xlink:href="#SVGID_55_"  overflow="visible"/>
		</clipPath>
		<g clip-path="url(#SVGID_56_)">
			<defs>
				<rect id="SVGID_57_" x="-1425.521" y="-45.511" width="1922.131" height="1366.849"/>
			</defs>
			<clipPath id="SVGID_58_">
				<use xlink:href="#SVGID_57_"  overflow="visible"/>
			</clipPath>
			<rect x="9.67" y="12.288" clip-path="url(#SVGID_58_)" fill="#FFFFFF" width="17.945" height="19.422"/>
		</g>
	</g>
	<g>
		<defs>
			<polyline id="SVGID_59_" points="7.15,12.884 7.15,6.813 11.747,9.847 7.15,12.884 			"/>
		</defs>
		<clipPath id="SVGID_60_">
			<use xlink:href="#SVGID_59_"  overflow="visible"/>
		</clipPath>
		<g clip-path="url(#SVGID_60_)">
			<defs>
				<rect id="SVGID_61_" x="-1425.521" y="-45.511" width="1922.131" height="1366.849"/>
			</defs>
			<clipPath id="SVGID_62_">
				<use xlink:href="#SVGID_61_"  overflow="visible"/>
			</clipPath>
			<rect x="0.476" y="0.139" clip-path="url(#SVGID_62_)" fill="#FFFFFF" width="17.945" height="19.419"/>
		</g>
	</g>
	<g>
		<defs>
			<polyline id="SVGID_63_" points="11.747,9.849 11.747,3.776 16.344,6.813 11.747,9.849 			"/>
		</defs>
		<clipPath id="SVGID_64_">
			<use xlink:href="#SVGID_63_"  overflow="visible"/>
		</clipPath>
		<g clip-path="url(#SVGID_64_)">
			<defs>
				<rect id="SVGID_65_" x="-1425.521" y="-45.511" width="1922.131" height="1366.849"/>
			</defs>
			<clipPath id="SVGID_66_">
				<use xlink:href="#SVGID_65_"  overflow="visible"/>
			</clipPath>
			<rect x="5.073" y="-2.898" clip-path="url(#SVGID_66_)" fill="#FFFFFF" width="17.945" height="19.421"/>
		</g>
	</g>
	<g>
		<defs>
			<polyline id="SVGID_67_" points="11.747,15.923 11.747,9.853 16.344,12.887 11.747,15.923 			"/>
		</defs>
		<clipPath id="SVGID_68_">
			<use xlink:href="#SVGID_67_"  overflow="visible"/>
		</clipPath>
		<g clip-path="url(#SVGID_68_)">
			<defs>
				<rect id="SVGID_69_" x="-1425.521" y="-45.511" width="1922.131" height="1366.849"/>
			</defs>
			<clipPath id="SVGID_70_">
				<use xlink:href="#SVGID_69_"  overflow="visible"/>
			</clipPath>
			<rect x="5.073" y="3.178" clip-path="url(#SVGID_70_)" fill="#FFFFFF" width="17.945" height="19.419"/>
		</g>
	</g>
	<g>
		<defs>
			<polyline id="SVGID_71_" points="2.553,21.994 2.553,15.923 7.15,18.959 2.553,21.994 			"/>
		</defs>
		<clipPath id="SVGID_72_">
			<use xlink:href="#SVGID_71_"  overflow="visible"/>
		</clipPath>
		<g clip-path="url(#SVGID_72_)">
			<defs>
				<rect id="SVGID_73_" x="-1425.521" y="-45.511" width="1922.131" height="1366.849"/>
			</defs>
			<clipPath id="SVGID_74_">
				<use xlink:href="#SVGID_73_"  overflow="visible"/>
			</clipPath>
			<rect x="-4.122" y="9.249" clip-path="url(#SVGID_74_)" fill="#FFFFFF" width="17.945" height="19.419"/>
		</g>
	</g>
	<g>
		<defs>
			<polyline id="SVGID_75_" points="7.15,18.961 7.15,12.889 11.747,15.923 7.15,18.961 			"/>
		</defs>
		<clipPath id="SVGID_76_">
			<use xlink:href="#SVGID_75_"  overflow="visible"/>
		</clipPath>
		<g clip-path="url(#SVGID_76_)">
			<defs>
				<rect id="SVGID_77_" x="-1425.521" y="-45.511" width="1922.131" height="1366.849"/>
			</defs>
			<clipPath id="SVGID_78_">
				<use xlink:href="#SVGID_77_"  overflow="visible"/>
			</clipPath>
			<rect x="0.476" y="6.215" clip-path="url(#SVGID_78_)" fill="#FFFFFF" width="17.945" height="19.42"/>
		</g>
	</g>
	<g>
		<defs>
			<polyline id="SVGID_79_" points="7.15,25.035 7.15,18.962 11.747,21.999 7.15,25.035 			"/>
		</defs>
		<clipPath id="SVGID_80_">
			<use xlink:href="#SVGID_79_"  overflow="visible"/>
		</clipPath>
		<g clip-path="url(#SVGID_80_)">
			<defs>
				<rect id="SVGID_81_" x="-1425.521" y="-45.511" width="1922.131" height="1366.849"/>
			</defs>
			<clipPath id="SVGID_82_">
				<use xlink:href="#SVGID_81_"  overflow="visible"/>
			</clipPath>
			<rect x="0.476" y="12.288" clip-path="url(#SVGID_82_)" fill="#FFFFFF" width="17.945" height="19.422"/>
		</g>
	</g>
	<g>
		<defs>
			<path id="SVGID_83_" d="M121.948,37.176c0.561,0,1.006-0.193,1.331-0.58c0.313-0.367,0.468-0.829,0.468-1.387
				c0-0.56-0.155-1.023-0.468-1.39c-0.326-0.385-0.77-0.579-1.331-0.579c-0.562,0-1.008,0.194-1.334,0.579
				c-0.31,0.367-0.468,0.83-0.468,1.39c0,0.558,0.158,1.02,0.468,1.387C120.94,36.984,121.386,37.176,121.948,37.176
				 M121.948,32.536c0.776,0,1.409,0.258,1.893,0.776c0.457,0.498,0.686,1.131,0.686,1.897c0,0.767-0.229,1.398-0.686,1.895
				c-0.485,0.518-1.118,0.777-1.893,0.777c-0.778,0-1.409-0.259-1.894-0.777c-0.459-0.498-0.687-1.129-0.687-1.895
				c0-0.767,0.228-1.4,0.687-1.897C120.539,32.794,121.17,32.536,121.948,32.536"/>
		</defs>
		<clipPath id="SVGID_84_">
			<use xlink:href="#SVGID_83_"  overflow="visible"/>
		</clipPath>
		<g clip-path="url(#SVGID_84_)">
			<defs>
				<rect id="SVGID_85_" x="-1425.521" y="-45.511" width="1922.131" height="1366.849"/>
			</defs>
			<clipPath id="SVGID_86_">
				<use xlink:href="#SVGID_85_"  overflow="visible"/>
			</clipPath>
			<rect x="112.693" y="25.862" clip-path="url(#SVGID_86_)" fill="#777776" width="18.508" height="18.694"/>
		</g>
	</g>
	<g>
		<defs>
			<path id="SVGID_87_" d="M128.23,33.239c-0.562,0-1.006,0.194-1.332,0.58c-0.312,0.368-0.467,0.83-0.467,1.388
				c0,0.561,0.155,1.024,0.467,1.389c0.327,0.387,0.77,0.581,1.332,0.581c0.555,0,1.007-0.194,1.352-0.581
				c0.327-0.365,0.488-0.829,0.488-1.389c0-0.558-0.162-1.02-0.488-1.388C129.236,33.434,128.785,33.239,128.23,33.239z
				 M126.471,33.448c0.416-0.609,1.038-0.911,1.863-0.911c0.748,0,1.355,0.257,1.82,0.776c0.466,0.51,0.697,1.143,0.697,1.894
				c0,0.754-0.231,1.386-0.697,1.897c-0.464,0.517-1.088,0.775-1.873,0.775c-0.782,0-1.387-0.306-1.809-0.921v2.891h-0.781v-7.231
				h0.781V33.448z"/>
		</defs>
		<clipPath id="SVGID_88_">
			<use xlink:href="#SVGID_87_"  overflow="visible"/>
		</clipPath>
		<g clip-path="url(#SVGID_88_)">
			<defs>
				<rect id="SVGID_89_" x="-1425.521" y="-45.511" width="1922.131" height="1366.849"/>
			</defs>
			<clipPath id="SVGID_90_">
				<use xlink:href="#SVGID_89_"  overflow="visible"/>
			</clipPath>
			<rect x="119.017" y="25.863" clip-path="url(#SVGID_90_)" fill="#777776" width="18.508" height="20.661"/>
		</g>
	</g>
	<g>
		<defs>
			<path id="SVGID_91_" d="M134.285,33.24c-0.478,0-0.881,0.149-1.207,0.445c-0.305,0.283-0.493,0.651-0.562,1.108h3.538
				c-0.069-0.457-0.257-0.825-0.561-1.108C135.167,33.389,134.763,33.24,134.285,33.24 M134.348,37.176
				c0.701,0,1.203-0.291,1.509-0.87h0.853c-0.18,0.469-0.467,0.849-0.858,1.138c-0.393,0.292-0.898,0.435-1.514,0.435
				c-0.783,0-1.422-0.258-1.915-0.775c-0.478-0.504-0.716-1.136-0.716-1.895c0-0.768,0.228-1.4,0.686-1.896
				c0.486-0.519,1.118-0.777,1.893-0.777c0.777,0,1.409,0.258,1.893,0.777c0.459,0.497,0.687,1.129,0.687,1.896v0.31h-4.359
				c0.055,0.476,0.245,0.87,0.572,1.181C133.411,37.018,133.835,37.176,134.348,37.176"/>
		</defs>
		<clipPath id="SVGID_92_">
			<use xlink:href="#SVGID_91_"  overflow="visible"/>
		</clipPath>
		<g clip-path="url(#SVGID_92_)">
			<defs>
				<rect id="SVGID_93_" x="-1425.521" y="-45.511" width="1922.131" height="1366.849"/>
			</defs>
			<clipPath id="SVGID_94_">
				<use xlink:href="#SVGID_93_"  overflow="visible"/>
			</clipPath>
			<rect x="125.032" y="25.862" clip-path="url(#SVGID_94_)" fill="#777776" width="18.507" height="18.692"/>
		</g>
	</g>
	<g>
		<defs>
			<path id="SVGID_95_" d="M140.721,32.536v0.776h-0.094c-0.561,0-1.02,0.226-1.372,0.673c-0.334,0.429-0.499,0.941-0.499,1.534
				v2.279h-0.782v-5.179h0.782v1.274c0.165-0.539,0.526-0.936,1.081-1.191c0.229-0.112,0.506-0.166,0.831-0.166H140.721"/>
		</defs>
		<clipPath id="SVGID_96_">
			<use xlink:href="#SVGID_95_"  overflow="visible"/>
		</clipPath>
		<g clip-path="url(#SVGID_96_)">
			<defs>
				<rect id="SVGID_97_" x="-1425.521" y="-45.511" width="1922.131" height="1366.849"/>
			</defs>
			<clipPath id="SVGID_98_">
				<use xlink:href="#SVGID_97_"  overflow="visible"/>
			</clipPath>
			<rect x="131.3" y="25.862" clip-path="url(#SVGID_98_)" fill="#777776" width="16.095" height="18.61"/>
		</g>
	</g>
	<g>
		<defs>
			<path id="SVGID_99_" d="M143.826,37.176c0.561,0,1.006-0.193,1.33-0.579c0.314-0.366,0.469-0.83,0.469-1.388
				c0-0.56-0.155-1.022-0.469-1.388c-0.325-0.387-0.769-0.581-1.33-0.581c-0.556,0-1.008,0.194-1.353,0.581
				c-0.326,0.366-0.489,0.829-0.489,1.388c0,0.558,0.163,1.022,0.489,1.388C142.818,36.984,143.271,37.176,143.826,37.176z
				 M145.584,36.97c-0.417,0.606-1.037,0.911-1.864,0.911c-0.748,0-1.359-0.26-1.83-0.777c-0.459-0.512-0.686-1.143-0.686-1.895
				c0-0.753,0.227-1.385,0.686-1.897c0.471-0.518,1.1-0.776,1.885-0.776c0.782,0,1.387,0.307,1.809,0.923v-0.84h0.78v5.179h-0.78
				V36.97z"/>
		</defs>
		<clipPath id="SVGID_100_">
			<use xlink:href="#SVGID_99_"  overflow="visible"/>
		</clipPath>
		<g clip-path="url(#SVGID_100_)">
			<defs>
				<rect id="SVGID_101_" x="-1425.521" y="-45.511" width="1922.131" height="1366.849"/>
			</defs>
			<clipPath id="SVGID_102_">
				<use xlink:href="#SVGID_101_"  overflow="visible"/>
			</clipPath>
			<rect x="134.53" y="25.862" clip-path="url(#SVGID_102_)" fill="#777776" width="18.508" height="18.694"/>
		</g>
	</g>
	<g>
		<defs>
			<polyline id="SVGID_103_" points="148.358,37.798 148.358,33.301 147.297,33.301 147.297,32.619 148.358,32.619 148.358,30.764 
				149.14,30.764 149.14,32.619 150.337,32.619 150.337,33.301 149.14,33.301 149.14,37.798 148.358,37.798 			"/>
		</defs>
		<clipPath id="SVGID_104_">
			<use xlink:href="#SVGID_103_"  overflow="visible"/>
		</clipPath>
		<g clip-path="url(#SVGID_104_)">
			<defs>
				<rect id="SVGID_105_" x="-1425.521" y="-45.511" width="1922.131" height="1366.849"/>
			</defs>
			<clipPath id="SVGID_106_">
				<use xlink:href="#SVGID_105_"  overflow="visible"/>
			</clipPath>
			<rect x="140.623" y="24.09" clip-path="url(#SVGID_106_)" fill="#777776" width="16.388" height="20.382"/>
		</g>
	</g>
	<g>
		<defs>
			<path id="SVGID_107_" d="M151.262,37.799h0.782v-5.18h-0.782V37.799z M151.23,31.749h0.843v-1.015h-0.843V31.749z"/>
		</defs>
		<clipPath id="SVGID_108_">
			<use xlink:href="#SVGID_107_"  overflow="visible"/>
		</clipPath>
		<g clip-path="url(#SVGID_108_)">
			<defs>
				<rect id="SVGID_109_" x="-1425.521" y="-45.511" width="1922.131" height="1366.849"/>
			</defs>
			<clipPath id="SVGID_110_">
				<use xlink:href="#SVGID_109_"  overflow="visible"/>
			</clipPath>
			<rect x="144.556" y="24.06" clip-path="url(#SVGID_110_)" fill="#777776" width="14.191" height="20.413"/>
		</g>
	</g>
	<g>
		<defs>
			<path id="SVGID_111_" d="M155.759,37.176c0.562,0,1.006-0.193,1.332-0.58c0.312-0.367,0.467-0.829,0.467-1.387
				c0-0.56-0.155-1.023-0.467-1.39c-0.326-0.385-0.77-0.579-1.332-0.579c-0.562,0-1.007,0.194-1.334,0.579
				c-0.31,0.367-0.466,0.83-0.466,1.39c0,0.558,0.156,1.02,0.466,1.387C154.752,36.984,155.196,37.176,155.759,37.176
				 M155.759,32.536c0.777,0,1.408,0.258,1.892,0.776c0.458,0.498,0.688,1.131,0.688,1.897c0,0.767-0.23,1.398-0.688,1.895
				c-0.485,0.518-1.116,0.777-1.892,0.777c-0.778,0-1.409-0.259-1.893-0.777c-0.459-0.498-0.689-1.129-0.689-1.895
				c0-0.767,0.23-1.4,0.689-1.897C154.35,32.794,154.981,32.536,155.759,32.536"/>
		</defs>
		<clipPath id="SVGID_112_">
			<use xlink:href="#SVGID_111_"  overflow="visible"/>
		</clipPath>
		<g clip-path="url(#SVGID_112_)">
			<defs>
				<rect id="SVGID_113_" x="-1425.521" y="-45.511" width="1922.131" height="1366.849"/>
			</defs>
			<clipPath id="SVGID_114_">
				<use xlink:href="#SVGID_113_"  overflow="visible"/>
			</clipPath>
			<rect x="146.502" y="25.862" clip-path="url(#SVGID_114_)" fill="#777776" width="18.51" height="18.694"/>
		</g>
	</g>
	<g>
		<defs>
			<path id="SVGID_115_" d="M160.265,32.619v0.808c0.187-0.248,0.416-0.459,0.689-0.632c0.27-0.173,0.577-0.258,0.924-0.258
				c0.347,0,0.646,0.048,0.896,0.143c0.25,0.099,0.467,0.244,0.654,0.437c0.431,0.421,0.646,0.977,0.646,1.668v3.015h-0.78v-2.994
				c0-0.476-0.135-0.856-0.406-1.14c-0.27-0.282-0.62-0.423-1.05-0.423c-0.439,0-0.809,0.144-1.114,0.435
				c-0.306,0.297-0.459,0.676-0.459,1.138v2.984h-0.781v-5.179H160.265"/>
		</defs>
		<clipPath id="SVGID_116_">
			<use xlink:href="#SVGID_115_"  overflow="visible"/>
		</clipPath>
		<g clip-path="url(#SVGID_116_)">
			<defs>
				<rect id="SVGID_117_" x="-1425.521" y="-45.511" width="1922.131" height="1366.849"/>
			</defs>
			<clipPath id="SVGID_118_">
				<use xlink:href="#SVGID_117_"  overflow="visible"/>
			</clipPath>
			<rect x="152.81" y="25.862" clip-path="url(#SVGID_118_)" fill="#777776" width="17.937" height="18.61"/>
		</g>
	</g>
	<g>
		<defs>
			<path id="SVGID_119_" d="M168.558,34.007c-0.07-0.54-0.505-0.809-1.307-0.809c-0.801,0-1.201,0.248-1.201,0.745
				c0,0.209,0.084,0.365,0.256,0.472c0.17,0.109,0.383,0.196,0.639,0.264c0.257,0.071,0.536,0.133,0.838,0.194
				c0.303,0.059,0.581,0.14,0.836,0.247c0.258,0.107,0.47,0.255,0.641,0.441c0.17,0.186,0.256,0.442,0.256,0.767
				c0,0.504-0.191,0.89-0.573,1.155c-0.381,0.266-0.897,0.399-1.55,0.399c-0.694,0-1.247-0.173-1.655-0.521
				c-0.375-0.301-0.577-0.699-0.603-1.189h0.811c0.048,0.477,0.319,0.798,0.81,0.962c0.183,0.057,0.36,0.084,0.537,0.084
				c0.176,0,0.342-0.011,0.494-0.03c0.152-0.022,0.303-0.059,0.448-0.115c0.332-0.132,0.5-0.357,0.5-0.673
				c0-0.215-0.085-0.379-0.256-0.493c-0.17-0.113-0.382-0.207-0.641-0.279c-0.256-0.072-0.536-0.139-0.836-0.196
				c-0.304-0.059-0.582-0.14-0.839-0.243c-0.257-0.104-0.469-0.246-0.639-0.425c-0.17-0.18-0.257-0.429-0.257-0.747
				c0-0.469,0.171-0.833,0.517-1.093c0.342-0.259,0.851-0.388,1.523-0.388c0.639,0,1.142,0.152,1.509,0.455
				c0.306,0.256,0.482,0.594,0.531,1.016H168.558"/>
		</defs>
		<clipPath id="SVGID_120_">
			<use xlink:href="#SVGID_119_"  overflow="visible"/>
		</clipPath>
		<g clip-path="url(#SVGID_120_)">
			<defs>
				<rect id="SVGID_121_" x="-1425.521" y="-45.511" width="1922.131" height="1366.849"/>
			</defs>
			<clipPath id="SVGID_122_">
				<use xlink:href="#SVGID_121_"  overflow="visible"/>
			</clipPath>
			<rect x="158.46" y="25.862" clip-path="url(#SVGID_122_)" fill="#777776" width="17.729" height="18.694"/>
		</g>
	</g>
</g>
</svg>
